<svg width="181" height="43" viewBox="0 0 181 43" fill="none" xmlns="http://www.w3.org/2000/svg">
<path d="M24.12 12.88V7.64H0.64V12.88H9.6V36H15.16V12.88H24.12ZM27.6966 23.92C27.8166 22.12 29.3366 20.04 32.0966 20.04C35.1366 20.04 36.4166 21.96 36.4966 23.92H27.6966ZM37.0166 29.04C36.3766 30.8 35.0166 32.04 32.5366 32.04C29.8966 32.04 27.6966 30.16 27.5766 27.56H41.6566C41.6566 27.48 41.7366 26.68 41.7366 25.92C41.7366 19.6 38.0966 15.72 32.0166 15.72C26.9766 15.72 22.3366 19.8 22.3366 26.08C22.3366 32.72 27.0966 36.6 32.4966 36.6C37.3366 36.6 40.4566 33.76 41.4566 30.36L37.0166 29.04ZM54.7659 20.64C57.4059 20.64 58.6459 22.32 59.1259 23.96L63.8859 22.36C63.0459 19.04 60.0059 15.72 54.6459 15.72C48.9259 15.72 44.4459 20.08 44.4459 26.16C44.4459 32.2 49.0059 36.6 54.8059 36.6C60.0459 36.6 63.1259 33.24 64.0059 29.96L59.3259 28.4C58.8859 29.92 57.5259 31.72 54.8059 31.72C52.0859 31.72 49.7659 29.72 49.7659 26.16C49.7659 22.6 52.0459 20.64 54.7659 20.64ZM73.2381 24.44C73.3581 22.28 74.6781 20.6 76.9181 20.6C79.4781 20.6 80.5581 22.32 80.5581 24.52V36H85.8781V23.6C85.8781 19.28 83.5581 15.8 78.5581 15.8C76.6781 15.8 74.5181 16.44 73.2381 17.96V7.04H67.9181V36H73.2381V24.44ZM97.2375 36V24.96H108.238V19.88H97.1975V12.88H109.598V7.64H91.6775V36H97.2375ZM125.056 36H130.136C130.056 35.32 129.936 33.96 129.936 32.44V16.32H124.616V27.76C124.616 30.04 123.256 31.64 120.896 31.64C118.416 31.64 117.296 29.88 117.296 27.68V16.32H111.976V28.76C111.976 33.04 114.696 36.52 119.456 36.52C121.536 36.52 123.816 35.72 124.896 33.88C124.896 34.68 124.976 35.6 125.056 36ZM140.933 24.68C140.933 22.4 142.293 20.6 144.613 20.6C147.173 20.6 148.253 22.32 148.253 24.52V36H153.573V23.6C153.573 19.28 151.333 15.8 146.453 15.8C144.333 15.8 141.973 16.72 140.773 18.76V16.32H135.613V36H140.933V24.68ZM177.733 7.04H172.493V18.28C171.933 17.24 170.333 15.84 166.933 15.84C161.373 15.84 157.493 20.36 157.493 26.12C157.493 32.08 161.493 36.48 167.093 36.48C169.733 36.48 171.733 35.28 172.613 33.72C172.613 34.64 172.733 35.6 172.813 36H177.893C177.813 35.2 177.733 33.76 177.733 32.44V7.04ZM162.853 26.12C162.853 22.6 165.013 20.6 167.733 20.6C170.453 20.6 172.573 22.56 172.573 26.08C172.573 29.64 170.453 31.72 167.733 31.72C164.933 31.72 162.853 29.64 162.853 26.12Z" fill="white"/>
</svg>
