<svg width="952" height="383" viewBox="0 0 952 383" fill="none" xmlns="http://www.w3.org/2000/svg">
<path d="M114.962 75H198.032C201.309 75 203.965 77.6566 203.965 80.9336V104.668C203.965 107.945 201.309 110.601 198.032 110.601H114.962C111.685 110.601 109.028 107.945 109.028 104.668V80.9336C109.028 77.6566 111.685 75 114.962 75Z" fill="url(#paint0_radial_2261_1039)"/>
<path d="M114.962 122.469H198.032C201.309 122.469 203.965 125.125 203.965 128.402V152.136C203.965 155.413 201.309 158.07 198.032 158.07H114.962C111.685 158.07 109.028 155.413 109.028 152.136V128.402C109.028 125.125 111.685 122.469 114.962 122.469Z" fill="url(#paint1_radial_2261_1039)"/>
<path d="M114.962 169.937H198.032C201.309 169.937 203.965 172.594 203.965 175.871V199.605C203.965 202.882 201.309 205.539 198.032 205.539H114.962C111.685 205.539 109.028 202.882 109.028 199.605V175.871C109.028 172.594 111.685 169.937 114.962 169.937Z" fill="url(#paint2_radial_2261_1039)"/>
<path d="M114.962 217.406H198.032C201.309 217.406 203.965 220.062 203.965 223.339V247.074C203.965 250.351 201.309 253.007 198.032 253.007H114.962C111.685 253.007 109.028 250.351 109.028 247.074V223.339C109.028 220.062 111.685 217.406 114.962 217.406Z" fill="url(#paint3_radial_2261_1039)"/>
<path d="M198.032 264.874H114.962C111.685 264.874 109.028 267.531 109.028 270.808V294.542C109.028 297.819 111.685 300.476 114.962 300.476H198.032C201.309 300.476 203.965 297.819 203.965 294.542V270.808C203.965 267.531 201.309 264.874 198.032 264.874Z" fill="url(#paint4_radial_2261_1039)"/>
<path d="M304.836 264.874H221.766C218.489 264.874 215.833 267.531 215.833 270.808V294.542C215.833 297.819 218.489 300.476 221.766 300.476H304.836C308.113 300.476 310.77 297.819 310.77 294.542V270.808C310.77 267.531 308.113 264.874 304.836 264.874Z" fill="url(#paint5_radial_2261_1039)"/>
<path d="M328.57 264.874H411.64C414.917 264.874 417.574 267.531 417.574 270.808V294.542C417.574 297.819 414.917 300.476 411.64 300.476H328.57C325.293 300.476 322.637 297.819 322.637 294.542V270.808C322.637 267.531 325.293 264.874 328.57 264.874Z" fill="url(#paint6_radial_2261_1039)"/>
<path d="M518.445 264.874H435.375C432.098 264.874 429.441 267.531 429.441 270.808V294.542C429.441 297.819 432.098 300.476 435.375 300.476H518.445C521.722 300.476 524.378 297.819 524.378 294.542V270.808C524.378 267.531 521.722 264.874 518.445 264.874Z" fill="url(#paint7_radial_2261_1039)"/>
<path d="M542.179 264.874H625.249C628.526 264.874 631.182 267.531 631.182 270.808V294.542C631.182 297.819 628.526 300.476 625.249 300.476H542.179C538.902 300.476 536.245 297.819 536.245 294.542V270.808C536.245 267.531 538.902 264.874 542.179 264.874Z" fill="url(#paint8_radial_2261_1039)"/>
<path d="M732.053 264.874H648.983C645.706 264.874 643.05 267.531 643.05 270.808V294.542C643.05 297.819 645.706 300.476 648.983 300.476H732.053C735.33 300.476 737.987 297.819 737.987 294.542V270.808C737.987 267.531 735.33 264.874 732.053 264.874Z" fill="url(#paint9_radial_2261_1039)"/>
<path d="M755.787 264.874H838.857C842.134 264.874 844.791 267.531 844.791 270.808V294.542C844.791 297.819 842.134 300.476 838.857 300.476H755.787C752.51 300.476 749.854 297.819 749.854 294.542V270.808C749.854 267.531 752.51 264.874 755.787 264.874Z" fill="url(#paint10_radial_2261_1039)"/>
<path d="M304.836 217.406H221.766C218.489 217.406 215.833 220.062 215.833 223.339V247.074C215.833 250.351 218.489 253.007 221.766 253.007H304.836C308.113 253.007 310.77 250.351 310.77 247.074V223.339C310.77 220.062 308.113 217.406 304.836 217.406Z" fill="url(#paint11_radial_2261_1039)"/>
<path d="M328.57 217.406H411.64C414.917 217.406 417.574 220.062 417.574 223.339V247.074C417.574 250.351 414.917 253.007 411.64 253.007H328.57C325.293 253.007 322.637 250.351 322.637 247.074V223.339C322.637 220.062 325.293 217.406 328.57 217.406Z" fill="url(#paint12_radial_2261_1039)"/>
<path d="M518.445 217.406H435.375C432.098 217.406 429.441 220.062 429.441 223.339V247.074C429.441 250.351 432.098 253.007 435.375 253.007H518.445C521.722 253.007 524.378 250.351 524.378 247.074V223.339C524.378 220.062 521.722 217.406 518.445 217.406Z" fill="url(#paint13_radial_2261_1039)"/>
<path d="M542.179 217.406H625.249C628.526 217.406 631.182 220.062 631.182 223.339V247.074C631.182 250.351 628.526 253.007 625.249 253.007H542.179C538.902 253.007 536.245 250.351 536.245 247.074V223.339C536.245 220.062 538.902 217.406 542.179 217.406Z" fill="url(#paint14_radial_2261_1039)"/>
<path d="M732.053 217.406H648.983C645.706 217.406 643.05 220.062 643.05 223.339V247.074C643.05 250.351 645.706 253.007 648.983 253.007H732.053C735.33 253.007 737.987 250.351 737.987 247.074V223.339C737.987 220.062 735.33 217.406 732.053 217.406Z" fill="url(#paint15_radial_2261_1039)"/>
<path d="M755.787 217.406H838.857C842.134 217.406 844.791 220.062 844.791 223.339V247.074C844.791 250.351 842.134 253.007 838.857 253.007H755.787C752.51 253.007 749.854 250.351 749.854 247.074V223.339C749.854 220.062 752.51 217.406 755.787 217.406Z" fill="url(#paint16_radial_2261_1039)"/>
<path d="M304.836 169.937H221.766C218.489 169.937 215.833 172.594 215.833 175.871V199.605C215.833 202.882 218.489 205.539 221.766 205.539H304.836C308.113 205.539 310.77 202.882 310.77 199.605V175.871C310.77 172.594 308.113 169.937 304.836 169.937Z" fill="url(#paint17_radial_2261_1039)"/>
<path d="M328.57 169.937H411.64C414.917 169.937 417.574 172.594 417.574 175.871V199.605C417.574 202.882 414.917 205.539 411.64 205.539H328.57C325.293 205.539 322.637 202.882 322.637 199.605V175.871C322.637 172.594 325.293 169.937 328.57 169.937Z" fill="url(#paint18_radial_2261_1039)"/>
<path d="M518.445 169.937H435.375C432.098 169.937 429.441 172.594 429.441 175.871V199.605C429.441 202.882 432.098 205.539 435.375 205.539H518.445C521.722 205.539 524.378 202.882 524.378 199.605V175.871C524.378 172.594 521.722 169.937 518.445 169.937Z" fill="url(#paint19_radial_2261_1039)"/>
<path d="M542.179 169.937H625.249C628.526 169.937 631.182 172.594 631.182 175.871V199.605C631.182 202.882 628.526 205.539 625.249 205.539H542.179C538.902 205.539 536.245 202.882 536.245 199.605V175.871C536.245 172.594 538.902 169.937 542.179 169.937Z" fill="url(#paint20_radial_2261_1039)"/>
<path d="M732.053 169.937H648.983C645.706 169.937 643.05 172.594 643.05 175.871V199.605C643.05 202.882 645.706 205.539 648.983 205.539H732.053C735.33 205.539 737.987 202.882 737.987 199.605V175.871C737.987 172.594 735.33 169.937 732.053 169.937Z" fill="url(#paint21_radial_2261_1039)"/>
<path d="M755.787 169.937H838.857C842.134 169.937 844.791 172.594 844.791 175.871V199.605C844.791 202.882 842.134 205.539 838.857 205.539H755.787C752.51 205.539 749.854 202.882 749.854 199.605V175.871C749.854 172.594 752.51 169.937 755.787 169.937Z" fill="url(#paint22_radial_2261_1039)"/>
<path d="M304.836 122.469H221.766C218.489 122.469 215.833 125.125 215.833 128.402V152.136C215.833 155.413 218.489 158.07 221.766 158.07H304.836C308.113 158.07 310.77 155.413 310.77 152.136V128.402C310.77 125.125 308.113 122.469 304.836 122.469Z" fill="url(#paint23_radial_2261_1039)"/>
<path d="M328.57 122.469H411.64C414.917 122.469 417.574 125.125 417.574 128.402V152.136C417.574 155.413 414.917 158.07 411.64 158.07H328.57C325.293 158.07 322.637 155.413 322.637 152.136V128.402C322.637 125.125 325.293 122.469 328.57 122.469Z" fill="url(#paint24_radial_2261_1039)"/>
<path d="M518.445 122.469H435.375C432.098 122.469 429.441 125.125 429.441 128.402V152.136C429.441 155.413 432.098 158.07 435.375 158.07H518.445C521.722 158.07 524.378 155.413 524.378 152.136V128.402C524.378 125.125 521.722 122.469 518.445 122.469Z" fill="url(#paint25_radial_2261_1039)"/>
<path d="M542.179 122.469H625.249C628.526 122.469 631.182 125.125 631.182 128.402V152.136C631.182 155.413 628.526 158.07 625.249 158.07H542.179C538.902 158.07 536.245 155.413 536.245 152.136V128.402C536.245 125.125 538.902 122.469 542.179 122.469Z" fill="url(#paint26_radial_2261_1039)"/>
<path d="M732.053 122.469H648.983C645.706 122.469 643.05 125.125 643.05 128.402V152.136C643.05 155.413 645.706 158.07 648.983 158.07H732.053C735.33 158.07 737.987 155.413 737.987 152.136V128.402C737.987 125.125 735.33 122.469 732.053 122.469Z" fill="url(#paint27_radial_2261_1039)"/>
<path d="M755.787 122.469H838.857C842.134 122.469 844.791 125.125 844.791 128.402V152.136C844.791 155.413 842.134 158.07 838.857 158.07H755.787C752.51 158.07 749.854 155.413 749.854 152.136V128.402C749.854 125.125 752.51 122.469 755.787 122.469Z" fill="url(#paint28_radial_2261_1039)"/>
<path d="M304.836 75H221.766C218.489 75 215.833 77.6566 215.833 80.9336V104.668C215.833 107.945 218.489 110.601 221.766 110.601H304.836C308.113 110.601 310.77 107.945 310.77 104.668V80.9336C310.77 77.6566 308.113 75 304.836 75Z" fill="url(#paint29_radial_2261_1039)"/>
<path d="M328.57 75H411.64C414.917 75 417.574 77.6566 417.574 80.9336V104.668C417.574 107.945 414.917 110.601 411.64 110.601H328.57C325.293 110.601 322.637 107.945 322.637 104.668V80.9336C322.637 77.6566 325.293 75 328.57 75Z" fill="url(#paint30_radial_2261_1039)"/>
<path d="M518.445 75H435.375C432.098 75 429.441 77.6566 429.441 80.9336V104.668C429.441 107.945 432.098 110.601 435.375 110.601H518.445C521.722 110.601 524.378 107.945 524.378 104.668V80.9336C524.378 77.6566 521.722 75 518.445 75Z" fill="url(#paint31_radial_2261_1039)"/>
<path d="M542.179 75H625.249C628.526 75 631.182 77.6566 631.182 80.9336V104.668C631.182 107.945 628.526 110.601 625.249 110.601H542.179C538.902 110.601 536.245 107.945 536.245 104.668V80.9336C536.245 77.6566 538.902 75 542.179 75Z" fill="url(#paint32_radial_2261_1039)"/>
<path d="M732.053 75H648.983C645.706 75 643.05 77.6566 643.05 80.9336V104.668C643.05 107.945 645.706 110.601 648.983 110.601H732.053C735.33 110.601 737.987 107.945 737.987 104.668V80.9336C737.987 77.6566 735.33 75 732.053 75Z" fill="url(#paint33_radial_2261_1039)"/>
<path d="M755.787 75H838.857C842.134 75 844.791 77.6566 844.791 80.9336V104.668C844.791 107.945 842.134 110.601 838.857 110.601H755.787C752.51 110.601 749.854 107.945 749.854 104.668V80.9336C749.854 77.6566 752.51 75 755.787 75Z" fill="url(#paint34_radial_2261_1039)"/>
<path d="M862.496 264.808H945.566C948.843 264.808 951.5 267.464 951.5 270.741V294.476C951.5 297.753 948.843 300.409 945.566 300.409H862.496C859.219 300.409 856.563 297.753 856.563 294.476V270.741C856.563 267.464 859.219 264.808 862.496 264.808Z" fill="url(#paint35_radial_2261_1039)"/>
<path d="M862.496 217.339H945.566C948.843 217.339 951.5 219.996 951.5 223.273V247.007C951.5 250.284 948.843 252.941 945.566 252.941H862.496C859.219 252.941 856.563 250.284 856.563 247.007V223.273C856.563 219.996 859.219 217.339 862.496 217.339Z" fill="url(#paint36_radial_2261_1039)"/>
<path d="M862.496 169.871H945.566C948.843 169.871 951.5 172.527 951.5 175.804V199.539C951.5 202.816 948.843 205.472 945.566 205.472H862.496C859.219 205.472 856.563 202.816 856.563 199.539V175.804C856.563 172.527 859.219 169.871 862.496 169.871Z" fill="url(#paint37_radial_2261_1039)"/>
<path d="M862.496 122.402H945.566C948.843 122.402 951.5 125.059 951.5 128.336V152.07C951.5 155.347 948.843 158.004 945.566 158.004H862.496C859.219 158.004 856.563 155.347 856.563 152.07V128.336C856.563 125.059 859.219 122.402 862.496 122.402Z" fill="url(#paint38_radial_2261_1039)"/>
<path d="M862.496 74.9336H945.566C948.843 74.9336 951.5 77.5901 951.5 80.8672V104.601C951.5 107.878 948.843 110.535 945.566 110.535H862.496C859.219 110.535 856.563 107.878 856.563 104.601V80.8672C856.563 77.5901 859.219 74.9336 862.496 74.9336Z" fill="url(#paint39_radial_2261_1039)"/>
<path d="M873.721 333V322.889H879.603V324.142H875.046V327.204H878.649V328.457H875.046V333H873.721ZM884.101 333.142C883.066 333.142 882.207 332.791 881.524 332.089C880.85 331.386 880.513 330.503 880.513 329.44C880.513 328.367 880.84 327.484 881.495 326.791C882.16 326.089 883.038 325.737 884.13 325.737C885.231 325.737 886.095 326.127 886.721 326.905C887.348 327.684 887.623 328.638 887.547 329.767H881.751C881.77 330.413 882.008 330.954 882.463 331.391C882.919 331.818 883.47 332.032 884.115 332.032C885.084 332.032 885.772 331.633 886.18 330.835H887.433C887.253 331.5 886.869 332.051 886.28 332.487C885.691 332.924 884.965 333.142 884.101 333.142ZM885.497 327.332C885.107 326.99 884.638 326.82 884.087 326.82C883.536 326.82 883.043 326.986 882.606 327.318C882.179 327.65 881.913 328.144 881.808 328.799H886.251C886.138 328.153 885.886 327.665 885.497 327.332ZM893.554 333.142C893.032 333.142 892.543 333.028 892.087 332.801C891.641 332.563 891.295 332.264 891.048 331.903V333H889.823V322.32H891.048V326.976C891.295 326.615 891.641 326.321 892.087 326.093C892.543 325.856 893.032 325.737 893.554 325.737C894.542 325.737 895.368 326.098 896.032 326.82C896.706 327.541 897.043 328.415 897.043 329.44C897.043 330.465 896.706 331.339 896.032 332.06C895.368 332.782 894.542 333.142 893.554 333.142ZM891.632 331.277C892.087 331.771 892.667 332.017 893.369 332.017C894.072 332.017 894.651 331.771 895.106 331.277C895.562 330.783 895.79 330.171 895.79 329.44C895.79 328.709 895.562 328.096 895.106 327.603C894.651 327.109 894.072 326.862 893.369 326.862C892.667 326.862 892.087 327.109 891.632 327.603C891.176 328.096 890.948 328.709 890.948 329.44C890.948 330.171 891.176 330.783 891.632 331.277ZM899.302 333V325.88H900.526V327.261C900.659 326.824 900.916 326.473 901.295 326.207C901.685 325.941 902.093 325.809 902.52 325.809C902.729 325.809 902.914 325.828 903.075 325.865V327.133C902.905 327.057 902.681 327.019 902.406 327.019C901.912 327.019 901.476 327.233 901.096 327.66C900.716 328.087 900.526 328.69 900.526 329.468V333H899.302ZM907.546 333.142C906.767 333.142 906.136 332.881 905.652 332.359C905.168 331.828 904.926 331.125 904.926 330.252V325.88H906.15V330.066C906.15 330.665 906.293 331.139 906.578 331.49C906.872 331.842 907.266 332.017 907.76 332.017C908.329 332.017 908.799 331.785 909.169 331.32C909.549 330.845 909.739 330.209 909.739 329.411V325.88H910.964V333H909.739V331.903C909.274 332.729 908.543 333.142 907.546 333.142ZM916.714 333.142C915.727 333.142 914.896 332.782 914.222 332.06C913.558 331.339 913.225 330.465 913.225 329.44C913.225 328.415 913.558 327.541 914.222 326.82C914.896 326.098 915.727 325.737 916.714 325.737C917.236 325.737 917.721 325.856 918.167 326.093C918.622 326.321 918.974 326.615 919.221 326.976V325.88H920.445V333H919.221V331.903C918.974 332.264 918.622 332.563 918.167 332.801C917.721 333.028 917.236 333.142 916.714 333.142ZM916.899 332.017C917.602 332.017 918.181 331.771 918.637 331.277C919.092 330.783 919.32 330.171 919.32 329.44C919.32 328.709 919.092 328.096 918.637 327.603C918.181 327.109 917.602 326.862 916.899 326.862C916.187 326.862 915.603 327.109 915.148 327.603C914.692 328.096 914.464 328.709 914.464 329.44C914.464 330.171 914.692 330.783 915.148 331.277C915.603 331.771 916.187 332.017 916.899 332.017ZM923.259 333V325.88H924.484V327.261C924.617 326.824 924.873 326.473 925.253 326.207C925.642 325.941 926.05 325.809 926.478 325.809C926.686 325.809 926.872 325.828 927.033 325.865V327.133C926.862 327.057 926.639 327.019 926.364 327.019C925.87 327.019 925.433 327.233 925.053 327.66C924.674 328.087 924.484 328.69 924.484 329.468V333H923.259ZM930.877 335.976H929.51L931.062 332.63L927.943 325.88H929.296L931.745 331.291L934.181 325.88H935.548L930.877 335.976Z" fill="#6F6C99"/>
<path d="M696.792 333.171C695.928 333.171 695.211 332.919 694.641 332.416C694.072 331.903 693.787 331.196 693.787 330.294H695.097C695.097 330.807 695.258 331.21 695.581 331.505C695.913 331.799 696.312 331.946 696.777 331.946C697.262 331.946 697.66 331.794 697.974 331.49C698.287 331.187 698.443 330.712 698.443 330.066V322.889H699.754V330.209C699.754 331.206 699.474 331.951 698.913 332.445C698.353 332.929 697.646 333.171 696.792 333.171ZM705.495 333.142C704.508 333.142 703.677 332.782 703.003 332.06C702.339 331.339 702.006 330.465 702.006 329.44C702.006 328.415 702.339 327.541 703.003 326.82C703.677 326.098 704.508 325.737 705.495 325.737C706.018 325.737 706.502 325.856 706.948 326.093C707.404 326.321 707.755 326.615 708.002 326.976V325.88H709.226V333H708.002V331.903C707.755 332.264 707.404 332.563 706.948 332.801C706.502 333.028 706.018 333.142 705.495 333.142ZM705.681 332.017C706.383 332.017 706.962 331.771 707.418 331.277C707.874 330.783 708.101 330.171 708.101 329.44C708.101 328.709 707.874 328.096 707.418 327.603C706.962 327.109 706.383 326.862 705.681 326.862C704.968 326.862 704.385 327.109 703.929 327.603C703.473 328.096 703.245 328.709 703.245 329.44C703.245 330.171 703.473 330.783 703.929 331.277C704.385 331.771 704.968 332.017 705.681 332.017ZM712.04 333V325.88H713.265V326.976C713.749 326.15 714.504 325.737 715.529 325.737C716.336 325.737 716.987 325.998 717.48 326.521C717.974 327.043 718.221 327.74 718.221 328.614V333H717.01V328.799C717.01 328.201 716.858 327.731 716.555 327.389C716.251 327.038 715.843 326.862 715.33 326.862C714.741 326.862 714.248 327.095 713.849 327.56C713.46 328.025 713.265 328.661 713.265 329.468V333H712.04ZM723.455 333.142C722.677 333.142 722.045 332.881 721.561 332.359C721.077 331.828 720.835 331.125 720.835 330.252V325.88H722.06V330.066C722.06 330.665 722.202 331.139 722.487 331.49C722.781 331.842 723.175 332.017 723.669 332.017C724.239 332.017 724.708 331.785 725.079 331.32C725.458 330.845 725.648 330.209 725.648 329.411V325.88H726.873V333H725.648V331.903C725.183 332.729 724.452 333.142 723.455 333.142ZM732.624 333.142C731.636 333.142 730.806 332.782 730.131 332.06C729.467 331.339 729.135 330.465 729.135 329.44C729.135 328.415 729.467 327.541 730.131 326.82C730.806 326.098 731.636 325.737 732.624 325.737C733.146 325.737 733.63 325.856 734.076 326.093C734.532 326.321 734.883 326.615 735.13 326.976V325.88H736.355V333H735.13V331.903C734.883 332.264 734.532 332.563 734.076 332.801C733.63 333.028 733.146 333.142 732.624 333.142ZM732.809 332.017C733.511 332.017 734.09 331.771 734.546 331.277C735.002 330.783 735.23 330.171 735.23 329.44C735.23 328.709 735.002 328.096 734.546 327.603C734.09 327.109 733.511 326.862 732.809 326.862C732.097 326.862 731.513 327.109 731.057 327.603C730.601 328.096 730.374 328.709 730.374 329.44C730.374 330.171 730.601 330.783 731.057 331.277C731.513 331.771 732.097 332.017 732.809 332.017ZM739.169 333V325.88H740.393V327.261C740.526 326.824 740.782 326.473 741.162 326.207C741.551 325.941 741.96 325.809 742.387 325.809C742.596 325.809 742.781 325.828 742.942 325.865V327.133C742.771 327.057 742.548 327.019 742.273 327.019C741.779 327.019 741.343 327.233 740.963 327.66C740.583 328.087 740.393 328.69 740.393 329.468V333H739.169ZM746.786 335.976H745.419L746.971 332.63L743.853 325.88H745.205L747.655 331.291L750.09 325.88H751.457L746.786 335.976Z" fill="#6F6C99"/>
<path d="M501.479 333V322.889H504.384C505.931 322.889 507.213 323.369 508.229 324.327C509.254 325.286 509.767 326.492 509.767 327.945C509.767 329.397 509.254 330.603 508.229 331.562C507.213 332.521 505.931 333 504.384 333H501.479ZM502.803 331.761H504.384C505.589 331.761 506.563 331.405 507.303 330.693C508.053 329.972 508.428 329.055 508.428 327.945C508.428 326.834 508.053 325.922 507.303 325.21C506.563 324.489 505.589 324.128 504.384 324.128H502.803V331.761ZM515.099 333.142C514.064 333.142 513.205 332.791 512.521 332.089C511.847 331.386 511.51 330.503 511.51 329.44C511.51 328.367 511.837 327.484 512.493 326.791C513.157 326.089 514.035 325.737 515.127 325.737C516.228 325.737 517.092 326.127 517.719 326.905C518.345 327.684 518.621 328.638 518.545 329.767H512.749C512.768 330.413 513.005 330.954 513.461 331.391C513.917 331.818 514.467 332.032 515.113 332.032C516.081 332.032 516.769 331.633 517.178 330.835H518.431C518.25 331.5 517.866 332.051 517.277 332.487C516.689 332.924 515.962 333.142 515.099 333.142ZM516.494 327.332C516.105 326.99 515.635 326.82 515.084 326.82C514.534 326.82 514.04 326.986 513.603 327.318C513.176 327.65 512.91 328.144 512.806 328.799H517.249C517.135 328.153 516.883 327.665 516.494 327.332ZM523.982 333.142C522.909 333.142 522.022 332.786 521.319 332.074C520.617 331.353 520.265 330.475 520.265 329.44C520.265 328.405 520.617 327.532 521.319 326.82C522.022 326.098 522.909 325.737 523.982 325.737C524.865 325.737 525.629 325.984 526.275 326.478C526.92 326.962 527.352 327.598 527.571 328.386H526.261C526.09 327.921 525.805 327.551 525.406 327.275C525.007 327 524.533 326.862 523.982 326.862C523.251 326.862 522.653 327.109 522.188 327.603C521.732 328.096 521.504 328.709 521.504 329.44C521.504 330.171 521.732 330.783 522.188 331.277C522.653 331.771 523.251 332.017 523.982 332.017C524.533 332.017 525.007 331.88 525.406 331.604C525.805 331.329 526.09 330.959 526.261 330.494H527.571C527.362 331.282 526.935 331.922 526.289 332.416C525.643 332.9 524.874 333.142 523.982 333.142ZM532.734 333.142C531.7 333.142 530.84 332.791 530.157 332.089C529.483 331.386 529.146 330.503 529.146 329.44C529.146 328.367 529.473 327.484 530.128 326.791C530.793 326.089 531.671 325.737 532.763 325.737C533.864 325.737 534.728 326.127 535.355 326.905C535.981 327.684 536.257 328.638 536.181 329.767H530.385C530.404 330.413 530.641 330.954 531.097 331.391C531.552 331.818 532.103 332.032 532.749 332.032C533.717 332.032 534.405 331.633 534.813 330.835H536.067C535.886 331.5 535.502 332.051 534.913 332.487C534.325 332.924 533.598 333.142 532.734 333.142ZM534.13 327.332C533.741 326.99 533.271 326.82 532.72 326.82C532.169 326.82 531.676 326.986 531.239 327.318C530.812 327.65 530.546 328.144 530.442 328.799H534.885C534.771 328.153 534.519 327.665 534.13 327.332ZM547.627 333V328.813C547.627 328.225 547.504 327.755 547.257 327.403C547.02 327.043 546.673 326.862 546.218 326.862C545.648 326.862 545.183 327.085 544.822 327.532C544.471 327.978 544.286 328.585 544.267 329.354V333H543.042V328.813C543.042 328.215 542.919 327.74 542.672 327.389C542.434 327.038 542.093 326.862 541.646 326.862C541.058 326.862 540.583 327.1 540.222 327.574C539.862 328.04 539.681 328.671 539.681 329.468V333H538.456V325.88H539.681V326.976C540.137 326.15 540.854 325.737 541.831 325.737C542.914 325.737 543.645 326.245 544.025 327.261C544.214 326.796 544.518 326.426 544.936 326.15C545.354 325.875 545.828 325.737 546.36 325.737C547.129 325.737 547.737 325.998 548.183 326.521C548.629 327.043 548.852 327.745 548.852 328.628V333H547.627ZM555.296 333.142C554.773 333.142 554.285 333.028 553.829 332.801C553.383 332.563 553.036 332.264 552.789 331.903V333H551.565V322.32H552.789V326.976C553.036 326.615 553.383 326.321 553.829 326.093C554.285 325.856 554.773 325.737 555.296 325.737C556.283 325.737 557.109 326.098 557.773 326.82C558.448 327.541 558.785 328.415 558.785 329.44C558.785 330.465 558.448 331.339 557.773 332.06C557.109 332.782 556.283 333.142 555.296 333.142ZM553.373 331.277C553.829 331.771 554.408 332.017 555.111 332.017C555.813 332.017 556.392 331.771 556.848 331.277C557.304 330.783 557.531 330.171 557.531 329.44C557.531 328.709 557.304 328.096 556.848 327.603C556.392 327.109 555.813 326.862 555.111 326.862C554.408 326.862 553.829 327.109 553.373 327.603C552.917 328.096 552.69 328.709 552.69 329.44C552.69 330.171 552.917 330.783 553.373 331.277ZM564.076 333.142C563.042 333.142 562.182 332.791 561.499 332.089C560.825 331.386 560.488 330.503 560.488 329.44C560.488 328.367 560.815 327.484 561.47 326.791C562.135 326.089 563.013 325.737 564.105 325.737C565.206 325.737 566.07 326.127 566.697 326.905C567.323 327.684 567.599 328.638 567.523 329.767H561.727C561.746 330.413 561.983 330.954 562.439 331.391C562.894 331.818 563.445 332.032 564.091 332.032C565.059 332.032 565.747 331.633 566.155 330.835H567.409C567.228 331.5 566.844 332.051 566.255 332.487C565.667 332.924 564.94 333.142 564.076 333.142ZM565.472 327.332C565.083 326.99 564.613 326.82 564.062 326.82C563.511 326.82 563.018 326.986 562.581 327.318C562.154 327.65 561.888 328.144 561.784 328.799H566.227C566.113 328.153 565.861 327.665 565.472 327.332ZM569.798 333V325.88H571.023V327.261C571.156 326.824 571.412 326.473 571.792 326.207C572.181 325.941 572.59 325.809 573.017 325.809C573.226 325.809 573.411 325.828 573.572 325.865V327.133C573.401 327.057 573.178 327.019 572.903 327.019C572.409 327.019 571.972 327.233 571.593 327.66C571.213 328.087 571.023 328.69 571.023 329.468V333H569.798Z" fill="#6F6C99"/>
<path d="M316.393 333H315.253L309.101 325.125V333H307.777V322.889H308.93L315.082 330.764V322.889H316.393V333ZM322.443 333.142C321.37 333.142 320.478 332.786 319.766 332.074C319.063 331.353 318.712 330.475 318.712 329.44C318.712 328.405 319.063 327.532 319.766 326.82C320.478 326.098 321.37 325.737 322.443 325.737C323.506 325.737 324.389 326.098 325.092 326.82C325.804 327.532 326.16 328.405 326.16 329.44C326.16 330.475 325.804 331.353 325.092 332.074C324.389 332.786 323.506 333.142 322.443 333.142ZM320.649 331.263C321.114 331.756 321.712 332.003 322.443 332.003C323.174 332.003 323.767 331.756 324.223 331.263C324.679 330.769 324.907 330.161 324.907 329.44C324.907 328.718 324.679 328.111 324.223 327.617C323.767 327.123 323.174 326.877 322.443 326.877C321.712 326.877 321.114 327.123 320.649 327.617C320.193 328.111 319.965 328.718 319.965 329.44C319.965 330.161 320.193 330.769 320.649 331.263ZM330.495 333L327.205 325.88H328.572L331.007 331.277L333.443 325.88H334.81L331.52 333H330.495ZM339.436 333.142C338.401 333.142 337.542 332.791 336.858 332.089C336.184 331.386 335.847 330.503 335.847 329.44C335.847 328.367 336.175 327.484 336.83 326.791C337.495 326.089 338.373 325.737 339.464 325.737C340.566 325.737 341.43 326.127 342.056 326.905C342.683 327.684 342.958 328.638 342.882 329.767H337.086C337.105 330.413 337.343 330.954 337.798 331.391C338.254 331.818 338.805 332.032 339.45 332.032C340.419 332.032 341.107 331.633 341.515 330.835H342.768C342.588 331.5 342.203 332.051 341.615 332.487C341.026 332.924 340.3 333.142 339.436 333.142ZM340.832 327.332C340.442 326.99 339.972 326.82 339.422 326.82C338.871 326.82 338.377 326.986 337.941 327.318C337.514 327.65 337.248 328.144 337.143 328.799H341.586C341.472 328.153 341.221 327.665 340.832 327.332ZM354.329 333V328.813C354.329 328.225 354.206 327.755 353.959 327.403C353.721 327.043 353.375 326.862 352.919 326.862C352.35 326.862 351.884 327.085 351.524 327.532C351.172 327.978 350.987 328.585 350.968 329.354V333H349.744V328.813C349.744 328.215 349.62 327.74 349.373 327.389C349.136 327.038 348.794 326.862 348.348 326.862C347.759 326.862 347.285 327.1 346.924 327.574C346.563 328.04 346.383 328.671 346.383 329.468V333H345.158V325.88H346.383V326.976C346.838 326.15 347.555 325.737 348.533 325.737C349.615 325.737 350.346 326.245 350.726 327.261C350.916 326.796 351.22 326.426 351.638 326.15C352.055 325.875 352.53 325.737 353.062 325.737C353.831 325.737 354.438 325.998 354.884 326.521C355.331 327.043 355.554 327.745 355.554 328.628V333H354.329ZM361.997 333.142C361.475 333.142 360.986 333.028 360.531 332.801C360.084 332.563 359.738 332.264 359.491 331.903V333H358.266V322.32H359.491V326.976C359.738 326.615 360.084 326.321 360.531 326.093C360.986 325.856 361.475 325.737 361.997 325.737C362.985 325.737 363.811 326.098 364.475 326.82C365.149 327.541 365.486 328.415 365.486 329.44C365.486 330.465 365.149 331.339 364.475 332.06C363.811 332.782 362.985 333.142 361.997 333.142ZM360.075 331.277C360.531 331.771 361.11 332.017 361.812 332.017C362.515 332.017 363.094 331.771 363.55 331.277C364.005 330.783 364.233 330.171 364.233 329.44C364.233 328.709 364.005 328.096 363.55 327.603C363.094 327.109 362.515 326.862 361.812 326.862C361.11 326.862 360.531 327.109 360.075 327.603C359.619 328.096 359.391 328.709 359.391 329.44C359.391 330.171 359.619 330.783 360.075 331.277ZM370.778 333.142C369.743 333.142 368.884 332.791 368.2 332.089C367.526 331.386 367.189 330.503 367.189 329.44C367.189 328.367 367.517 327.484 368.172 326.791C368.837 326.089 369.715 325.737 370.806 325.737C371.908 325.737 372.772 326.127 373.398 326.905C374.025 327.684 374.3 328.638 374.224 329.767H368.428C368.447 330.413 368.685 330.954 369.14 331.391C369.596 331.818 370.147 332.032 370.792 332.032C371.761 332.032 372.449 331.633 372.857 330.835H374.11C373.93 331.5 373.545 332.051 372.957 332.487C372.368 332.924 371.642 333.142 370.778 333.142ZM372.174 327.332C371.784 326.99 371.314 326.82 370.764 326.82C370.213 326.82 369.719 326.986 369.283 327.318C368.856 327.65 368.59 328.144 368.485 328.799H372.928C372.814 328.153 372.563 327.665 372.174 327.332ZM376.5 333V325.88H377.725V327.261C377.858 326.824 378.114 326.473 378.494 326.207C378.883 325.941 379.291 325.809 379.718 325.809C379.927 325.809 380.112 325.828 380.274 325.865V327.133C380.103 327.057 379.88 327.019 379.605 327.019C379.111 327.019 378.674 327.233 378.294 327.66C377.915 328.087 377.725 328.69 377.725 329.468V333H376.5Z" fill="#6F6C99"/>
<path d="M133.208 332.381C134.319 332.381 135.244 331.996 135.985 331.227C136.735 330.458 137.11 329.518 137.11 328.407C137.11 327.297 136.735 326.357 135.985 325.588C135.244 324.819 134.319 324.434 133.208 324.434C132.107 324.434 131.181 324.819 130.431 325.588C129.69 326.357 129.32 327.297 129.32 328.407C129.32 329.518 129.69 330.458 130.431 331.227C131.181 331.996 132.107 332.381 133.208 332.381ZM133.208 333.634C131.755 333.634 130.521 333.131 129.505 332.124C128.489 331.108 127.981 329.87 127.981 328.407C127.981 326.945 128.489 325.711 129.505 324.705C130.521 323.689 131.755 323.181 133.208 323.181C134.67 323.181 135.904 323.689 136.91 324.705C137.926 325.711 138.434 326.945 138.434 328.407C138.434 329.87 137.926 331.108 136.91 332.124C135.904 333.131 134.67 333.634 133.208 333.634ZM143.915 333.605C142.843 333.605 141.955 333.249 141.252 332.537C140.55 331.816 140.199 330.938 140.199 329.903C140.199 328.868 140.55 327.995 141.252 327.282C141.955 326.561 142.843 326.2 143.915 326.2C144.798 326.2 145.563 326.447 146.208 326.941C146.854 327.425 147.286 328.061 147.504 328.849H146.194C146.023 328.384 145.738 328.014 145.339 327.738C144.941 327.463 144.466 327.325 143.915 327.325C143.184 327.325 142.586 327.572 142.121 328.066C141.665 328.559 141.438 329.172 141.438 329.903C141.438 330.634 141.665 331.246 142.121 331.74C142.586 332.233 143.184 332.48 143.915 332.48C144.466 332.48 144.941 332.343 145.339 332.067C145.738 331.792 146.023 331.422 146.194 330.957H147.504C147.295 331.745 146.868 332.385 146.222 332.879C145.577 333.363 144.808 333.605 143.915 333.605ZM152.328 333.534C151.673 333.534 151.146 333.349 150.747 332.979C150.348 332.608 150.149 332.067 150.149 331.355V327.468H148.639V326.343H150.149V324.363H151.374V326.343H153.424V327.468H151.374V331.199C151.374 331.645 151.468 331.958 151.658 332.139C151.848 332.319 152.147 332.409 152.555 332.409C152.916 332.409 153.206 332.362 153.424 332.267V333.363C153.082 333.477 152.717 333.534 152.328 333.534ZM158.561 333.605C157.488 333.605 156.596 333.249 155.884 332.537C155.181 331.816 154.83 330.938 154.83 329.903C154.83 328.868 155.181 327.995 155.884 327.282C156.596 326.561 157.488 326.2 158.561 326.2C159.625 326.2 160.507 326.561 161.21 327.282C161.922 327.995 162.278 328.868 162.278 329.903C162.278 330.938 161.922 331.816 161.21 332.537C160.507 333.249 159.625 333.605 158.561 333.605ZM156.767 331.726C157.232 332.219 157.83 332.466 158.561 332.466C159.292 332.466 159.886 332.219 160.341 331.726C160.797 331.232 161.025 330.624 161.025 329.903C161.025 329.181 160.797 328.574 160.341 328.08C159.886 327.586 159.292 327.339 158.561 327.339C157.83 327.339 157.232 327.586 156.767 328.08C156.311 328.574 156.083 329.181 156.083 329.903C156.083 330.624 156.311 331.232 156.767 331.726ZM168.276 333.605C167.753 333.605 167.265 333.491 166.809 333.264C166.363 333.026 166.016 332.727 165.769 332.366V333.463H164.545V322.782H165.769V327.439C166.016 327.078 166.363 326.784 166.809 326.556C167.265 326.319 167.753 326.2 168.276 326.2C169.263 326.2 170.089 326.561 170.753 327.282C171.428 328.004 171.765 328.877 171.765 329.903C171.765 330.928 171.428 331.801 170.753 332.523C170.089 333.245 169.263 333.605 168.276 333.605ZM166.353 331.74C166.809 332.233 167.388 332.48 168.09 332.48C168.793 332.48 169.372 332.233 169.828 331.74C170.284 331.246 170.511 330.634 170.511 329.903C170.511 329.172 170.284 328.559 169.828 328.066C169.372 327.572 168.793 327.325 168.09 327.325C167.388 327.325 166.809 327.572 166.353 328.066C165.897 328.559 165.67 329.172 165.67 329.903C165.67 330.634 165.897 331.246 166.353 331.74ZM177.056 333.605C176.021 333.605 175.162 333.254 174.479 332.551C173.805 331.849 173.468 330.966 173.468 329.903C173.468 328.83 173.795 327.947 174.45 327.254C175.115 326.551 175.993 326.2 177.085 326.2C178.186 326.2 179.05 326.589 179.677 327.368C180.303 328.146 180.578 329.101 180.503 330.23H174.707C174.726 330.876 174.963 331.417 175.419 331.854C175.874 332.281 176.425 332.495 177.071 332.495C178.039 332.495 178.727 332.096 179.135 331.298H180.389C180.208 331.963 179.824 332.514 179.235 332.95C178.646 333.387 177.92 333.605 177.056 333.605ZM178.452 327.795C178.063 327.453 177.593 327.282 177.042 327.282C176.491 327.282 175.998 327.449 175.561 327.781C175.134 328.113 174.868 328.607 174.764 329.262H179.207C179.093 328.616 178.841 328.127 178.452 327.795ZM182.778 333.463V326.343H184.003V327.724C184.136 327.287 184.392 326.936 184.772 326.67C185.161 326.404 185.57 326.271 185.997 326.271C186.206 326.271 186.391 326.29 186.552 326.328V327.596C186.381 327.52 186.158 327.482 185.883 327.482C185.389 327.482 184.952 327.695 184.573 328.123C184.193 328.55 184.003 329.153 184.003 329.931V333.463H182.778Z" fill="#6F6C99"/>
<path d="M546.451 378V367.426H542.694V365.93H551.755V367.426H547.998V378H546.451ZM555.315 366.933C555.122 367.126 554.879 367.222 554.584 367.222C554.289 367.222 554.04 367.126 553.836 366.933C553.632 366.729 553.53 366.48 553.53 366.185C553.53 365.902 553.632 365.658 553.836 365.454C554.04 365.25 554.289 365.148 554.584 365.148C554.879 365.148 555.122 365.25 555.315 365.454C555.508 365.658 555.604 365.902 555.604 366.185C555.604 366.48 555.508 366.729 555.315 366.933ZM553.836 378V369.5H555.298V378H553.836ZM569.526 378V373.002C569.526 372.299 569.379 371.738 569.084 371.319C568.801 370.888 568.387 370.673 567.843 370.673C567.163 370.673 566.608 370.939 566.177 371.472C565.758 372.005 565.537 372.73 565.514 373.648V378H564.052V373.002C564.052 372.288 563.905 371.721 563.61 371.302C563.327 370.883 562.919 370.673 562.386 370.673C561.683 370.673 561.117 370.956 560.686 371.523C560.255 372.078 560.04 372.832 560.04 373.784V378H558.578V369.5H560.04V370.809C560.584 369.823 561.44 369.33 562.607 369.33C563.899 369.33 564.772 369.936 565.225 371.149C565.452 370.594 565.814 370.152 566.313 369.823C566.812 369.494 567.378 369.33 568.013 369.33C568.931 369.33 569.656 369.642 570.189 370.265C570.722 370.888 570.988 371.727 570.988 372.781V378H569.526ZM577.749 378.17C576.513 378.17 575.488 377.751 574.672 376.912C573.867 376.073 573.465 375.019 573.465 373.75C573.465 372.469 573.856 371.415 574.638 370.588C575.431 369.749 576.479 369.33 577.783 369.33C579.097 369.33 580.129 369.795 580.877 370.724C581.625 371.653 581.953 372.792 581.863 374.141H574.944C574.966 374.912 575.25 375.558 575.794 376.079C576.338 376.589 576.995 376.844 577.766 376.844C578.922 376.844 579.743 376.368 580.231 375.416H581.727C581.511 376.209 581.052 376.867 580.35 377.388C579.647 377.909 578.78 378.17 577.749 378.17ZM579.415 371.234C578.95 370.826 578.389 370.622 577.732 370.622C577.074 370.622 576.485 370.82 575.964 371.217C575.454 371.614 575.136 372.203 575.012 372.985H580.316C580.18 372.214 579.879 371.631 579.415 371.234Z" fill="black"/>
<path d="M87.5563 299.142C86.5025 299.142 85.6433 298.791 84.9787 298.089C84.3142 297.377 83.9819 296.46 83.9819 295.34V292.521C83.9819 291.4 84.3142 290.489 84.9787 289.786C85.6528 289.074 86.512 288.718 87.5563 288.718C88.6006 288.718 89.4598 289.074 90.1338 289.786C90.8079 290.498 91.1449 291.41 91.1449 292.521V295.34C91.1449 296.46 90.8079 297.377 90.1338 298.089C89.4598 298.791 88.6006 299.142 87.5563 299.142ZM87.5563 297.946C88.2588 297.946 88.8284 297.714 89.2651 297.248C89.7019 296.783 89.9202 296.147 89.9202 295.34V292.521C89.9202 291.714 89.7019 291.077 89.2651 290.612C88.8284 290.147 88.2588 289.915 87.5563 289.915C86.8632 289.915 86.2984 290.147 85.8616 290.612C85.4249 291.077 85.2066 291.714 85.2066 292.521V295.34C85.2066 296.147 85.4249 296.783 85.8616 297.248C86.2984 297.714 86.8632 297.946 87.5563 297.946Z" fill="#6F6C99"/>
<path d="M47.3537 248.142C46.2999 248.142 45.4407 247.791 44.7762 247.089C44.1116 246.377 43.7793 245.46 43.7793 244.34V241.521C43.7793 240.4 44.1116 239.489 44.7762 238.786C45.4502 238.074 46.3094 237.718 47.3537 237.718C48.398 237.718 49.2572 238.074 49.9312 238.786C50.6053 239.498 50.9423 240.41 50.9423 241.521V244.34C50.9423 245.46 50.6053 246.377 49.9312 247.089C49.2572 247.791 48.398 248.142 47.3537 248.142ZM47.3537 246.946C48.0562 246.946 48.6259 246.714 49.0626 246.248C49.4993 245.783 49.7176 245.147 49.7176 244.34V241.521C49.7176 240.714 49.4993 240.077 49.0626 239.612C48.6259 239.147 48.0562 238.915 47.3537 238.915C46.6607 238.915 46.0958 239.147 45.6591 239.612C45.2224 240.077 45.004 240.714 45.004 241.521V244.34C45.004 245.147 45.2224 245.783 45.6591 246.248C46.0958 246.714 46.6607 246.946 47.3537 246.946ZM54.6183 247.801C54.419 248.009 54.1721 248.114 53.8778 248.114C53.5835 248.114 53.3319 248.009 53.1231 247.801C52.9237 247.592 52.824 247.34 52.824 247.046C52.824 246.761 52.9284 246.514 53.1373 246.305C53.3462 246.087 53.593 245.978 53.8778 245.978C54.1626 245.978 54.4095 246.087 54.6183 246.305C54.8272 246.514 54.9316 246.761 54.9316 247.046C54.9316 247.34 54.8272 247.592 54.6183 247.801ZM60.3864 248.142C59.3326 248.142 58.4734 247.791 57.8088 247.089C57.1443 246.377 56.812 245.46 56.812 244.34V241.521C56.812 240.4 57.1443 239.489 57.8088 238.786C58.4829 238.074 59.342 237.718 60.3864 237.718C61.4307 237.718 62.2898 238.074 62.9639 238.786C63.638 239.498 63.975 240.41 63.975 241.521V244.34C63.975 245.46 63.638 246.377 62.9639 247.089C62.2898 247.791 61.4307 248.142 60.3864 248.142ZM60.3864 246.946C61.0889 246.946 61.6585 246.714 62.0952 246.248C62.5319 245.783 62.7503 245.147 62.7503 244.34V241.521C62.7503 240.714 62.5319 240.077 62.0952 239.612C61.6585 239.147 61.0889 238.915 60.3864 238.915C59.6933 238.915 59.1284 239.147 58.6917 239.612C58.255 240.077 58.0367 240.714 58.0367 241.521V244.34C58.0367 245.147 58.255 245.783 58.6917 246.248C59.1284 246.714 59.6933 246.946 60.3864 246.946ZM69.7675 248.142C68.7137 248.142 67.8545 247.791 67.1899 247.089C66.5254 246.377 66.1931 245.46 66.1931 244.34V241.521C66.1931 240.4 66.5254 239.489 67.1899 238.786C67.864 238.074 68.7232 237.718 69.7675 237.718C70.8118 237.718 71.671 238.074 72.345 238.786C73.0191 239.498 73.3561 240.41 73.3561 241.521V244.34C73.3561 245.46 73.0191 246.377 72.345 247.089C71.671 247.791 70.8118 248.142 69.7675 248.142ZM69.7675 246.946C70.47 246.946 71.0396 246.714 71.4764 246.248C71.9131 245.783 72.1314 245.147 72.1314 244.34V241.521C72.1314 240.714 71.9131 240.077 71.4764 239.612C71.0396 239.147 70.47 238.915 69.7675 238.915C69.0744 238.915 68.5096 239.147 68.0729 239.612C67.6362 240.077 67.4178 240.714 67.4178 241.521V244.34C67.4178 245.147 67.6362 245.783 68.0729 246.248C68.5096 246.714 69.0744 246.946 69.7675 246.946ZM79.1486 248.142C78.0948 248.142 77.2356 247.791 76.5711 247.089C75.9065 246.377 75.5742 245.46 75.5742 244.34V241.521C75.5742 240.4 75.9065 239.489 76.5711 238.786C77.2451 238.074 78.1043 237.718 79.1486 237.718C80.1929 237.718 81.0521 238.074 81.7262 238.786C82.4002 239.498 82.7372 240.41 82.7372 241.521V244.34C82.7372 245.46 82.4002 246.377 81.7262 247.089C81.0521 247.791 80.1929 248.142 79.1486 248.142ZM79.1486 246.946C79.8512 246.946 80.4208 246.714 80.8575 246.248C81.2942 245.783 81.5126 245.147 81.5126 244.34V241.521C81.5126 240.714 81.2942 240.077 80.8575 239.612C80.4208 239.147 79.8512 238.915 79.1486 238.915C78.4556 238.915 77.8907 239.147 77.454 239.612C77.0173 240.077 76.7989 240.714 76.7989 241.521V244.34C76.7989 245.147 77.0173 245.783 77.454 246.248C77.8907 246.714 78.4556 246.946 79.1486 246.946ZM88.0029 248.142C87.0915 248.142 86.3035 247.858 85.6389 247.288C84.9744 246.718 84.6326 246.044 84.6136 245.266H85.8668C85.9807 245.759 86.2323 246.163 86.6215 246.476C87.0108 246.79 87.4712 246.946 88.0029 246.946C88.6199 246.946 89.1374 246.737 89.5551 246.32C89.9728 245.902 90.1817 245.389 90.1817 244.782C90.1817 244.165 89.9823 243.647 89.5836 243.229C89.1848 242.812 88.6769 242.603 88.0598 242.603C87.2149 242.603 86.5788 242.945 86.1516 243.628L84.9839 243.286L86.0234 237.889H90.7513V239.085H87.006L86.4506 241.976C86.9443 241.625 87.5329 241.449 88.2165 241.449C89.1563 241.449 89.9253 241.782 90.5234 242.446C91.131 243.101 91.4348 243.932 91.4348 244.938C91.4348 245.831 91.1073 246.59 90.4522 247.217C89.7972 247.834 88.9807 248.142 88.0029 248.142Z" fill="#6F6C99"/>
<path d="M50.6218 197.142C49.568 197.142 48.7088 196.791 48.0443 196.089C47.3797 195.377 47.0474 194.46 47.0474 193.34V190.521C47.0474 189.4 47.3797 188.489 48.0443 187.786C48.7183 187.074 49.5775 186.718 50.6218 186.718C51.6661 186.718 52.5253 187.074 53.1993 187.786C53.8734 188.498 54.2104 189.41 54.2104 190.521V193.34C54.2104 194.46 53.8734 195.377 53.1993 196.089C52.5253 196.791 51.6661 197.142 50.6218 197.142ZM50.6218 195.946C51.3243 195.946 51.894 195.714 52.3307 195.248C52.7674 194.783 52.9857 194.147 52.9857 193.34V190.521C52.9857 189.714 52.7674 189.077 52.3307 188.612C51.894 188.147 51.3243 187.915 50.6218 187.915C49.9288 187.915 49.3639 188.147 48.9272 188.612C48.4905 189.077 48.2721 189.714 48.2721 190.521V193.34C48.2721 194.147 48.4905 194.783 48.9272 195.248C49.3639 195.714 49.9288 195.946 50.6218 195.946ZM57.8864 196.801C57.6871 197.009 57.4402 197.114 57.1459 197.114C56.8516 197.114 56.6 197.009 56.3912 196.801C56.1918 196.592 56.0921 196.34 56.0921 196.046C56.0921 195.761 56.1965 195.514 56.4054 195.305C56.6143 195.087 56.8611 194.978 57.1459 194.978C57.4307 194.978 57.6776 195.087 57.8864 195.305C58.0953 195.514 58.1997 195.761 58.1997 196.046C58.1997 196.34 58.0953 196.592 57.8864 196.801ZM63.6545 197.142C62.6007 197.142 61.7415 196.791 61.0769 196.089C60.4124 195.377 60.0801 194.46 60.0801 193.34V190.521C60.0801 189.4 60.4124 188.489 61.0769 187.786C61.751 187.074 62.6101 186.718 63.6545 186.718C64.6988 186.718 65.5579 187.074 66.232 187.786C66.9061 188.498 67.2431 189.41 67.2431 190.521V193.34C67.2431 194.46 66.9061 195.377 66.232 196.089C65.5579 196.791 64.6988 197.142 63.6545 197.142ZM63.6545 195.946C64.357 195.946 64.9266 195.714 65.3633 195.248C65.8 194.783 66.0184 194.147 66.0184 193.34V190.521C66.0184 189.714 65.8 189.077 65.3633 188.612C64.9266 188.147 64.357 187.915 63.6545 187.915C62.9614 187.915 62.3965 188.147 61.9598 188.612C61.5231 189.077 61.3048 189.714 61.3048 190.521V193.34C61.3048 194.147 61.5231 194.783 61.9598 195.248C62.3965 195.714 62.9614 195.946 63.6545 195.946ZM73.0356 197.142C71.9818 197.142 71.1226 196.791 70.458 196.089C69.7935 195.377 69.4612 194.46 69.4612 193.34V190.521C69.4612 189.4 69.7935 188.489 70.458 187.786C71.1321 187.074 71.9913 186.718 73.0356 186.718C74.0799 186.718 74.9391 187.074 75.6131 187.786C76.2872 188.498 76.6242 189.41 76.6242 190.521V193.34C76.6242 194.46 76.2872 195.377 75.6131 196.089C74.9391 196.791 74.0799 197.142 73.0356 197.142ZM73.0356 195.946C73.7381 195.946 74.3077 195.714 74.7445 195.248C75.1812 194.783 75.3995 194.147 75.3995 193.34V190.521C75.3995 189.714 75.1812 189.077 74.7445 188.612C74.3077 188.147 73.7381 187.915 73.0356 187.915C72.3425 187.915 71.7777 188.147 71.341 188.612C70.9042 189.077 70.6859 189.714 70.6859 190.521V193.34C70.6859 194.147 70.9042 194.783 71.341 195.248C71.7777 195.714 72.3425 195.946 73.0356 195.946ZM80.0528 197V188.1H78.1018L79.0987 186.889H81.2775V197H80.0528ZM87.5563 197.142C86.5025 197.142 85.6433 196.791 84.9787 196.089C84.3142 195.377 83.9819 194.46 83.9819 193.34V190.521C83.9819 189.4 84.3142 188.489 84.9787 187.786C85.6528 187.074 86.512 186.718 87.5563 186.718C88.6006 186.718 89.4598 187.074 90.1338 187.786C90.8079 188.498 91.1449 189.41 91.1449 190.521V193.34C91.1449 194.46 90.8079 195.377 90.1338 196.089C89.4598 196.791 88.6006 197.142 87.5563 197.142ZM87.5563 195.946C88.2588 195.946 88.8284 195.714 89.2651 195.248C89.7019 194.783 89.9202 194.147 89.9202 193.34V190.521C89.9202 189.714 89.7019 189.077 89.2651 188.612C88.8284 188.147 88.2588 187.915 87.5563 187.915C86.8632 187.915 86.2984 188.147 85.8616 188.612C85.4249 189.077 85.2066 189.714 85.2066 190.521V193.34C85.2066 194.147 85.4249 194.783 85.8616 195.248C86.2984 195.714 86.8632 195.946 87.5563 195.946Z" fill="#6F6C99"/>
<path d="M51.5953 146.142C50.5415 146.142 49.6823 145.791 49.0177 145.089C48.3532 144.377 48.0209 143.46 48.0209 142.34V139.521C48.0209 138.4 48.3532 137.489 49.0177 136.786C49.6918 136.074 50.551 135.718 51.5953 135.718C52.6396 135.718 53.4988 136.074 54.1728 136.786C54.8469 137.498 55.1839 138.41 55.1839 139.521V142.34C55.1839 143.46 54.8469 144.377 54.1728 145.089C53.4988 145.791 52.6396 146.142 51.5953 146.142ZM51.5953 144.946C52.2978 144.946 52.8674 144.714 53.3041 144.248C53.7408 143.783 53.9592 143.147 53.9592 142.34V139.521C53.9592 138.714 53.7408 138.077 53.3041 137.612C52.8674 137.147 52.2978 136.915 51.5953 136.915C50.9022 136.915 50.3374 137.147 49.9006 137.612C49.4639 138.077 49.2456 138.714 49.2456 139.521V142.34C49.2456 143.147 49.4639 143.783 49.9006 144.248C50.3374 144.714 50.9022 144.946 51.5953 144.946ZM58.8599 145.801C58.6605 146.009 58.4137 146.114 58.1194 146.114C57.8251 146.114 57.5735 146.009 57.3646 145.801C57.1653 145.592 57.0656 145.34 57.0656 145.046C57.0656 144.761 57.17 144.514 57.3789 144.305C57.5877 144.087 57.8346 143.978 58.1194 143.978C58.4042 143.978 58.651 144.087 58.8599 144.305C59.0688 144.514 59.1732 144.761 59.1732 145.046C59.1732 145.34 59.0688 145.592 58.8599 145.801ZM64.6279 146.142C63.5741 146.142 62.7149 145.791 62.0504 145.089C61.3858 144.377 61.0535 143.46 61.0535 142.34V139.521C61.0535 138.4 61.3858 137.489 62.0504 136.786C62.7244 136.074 63.5836 135.718 64.6279 135.718C65.6722 135.718 66.5314 136.074 67.2055 136.786C67.8795 137.498 68.2166 138.41 68.2166 139.521V142.34C68.2166 143.46 67.8795 144.377 67.2055 145.089C66.5314 145.791 65.6722 146.142 64.6279 146.142ZM64.6279 144.946C65.3305 144.946 65.9001 144.714 66.3368 144.248C66.7735 143.783 66.9919 143.147 66.9919 142.34V139.521C66.9919 138.714 66.7735 138.077 66.3368 137.612C65.9001 137.147 65.3305 136.915 64.6279 136.915C63.9349 136.915 63.37 137.147 62.9333 137.612C62.4966 138.077 62.2782 138.714 62.2782 139.521V142.34C62.2782 143.147 62.4966 143.783 62.9333 144.248C63.37 144.714 63.9349 144.946 64.6279 144.946ZM74.0091 146.142C72.9553 146.142 72.0961 145.791 71.4315 145.089C70.767 144.377 70.4347 143.46 70.4347 142.34V139.521C70.4347 138.4 70.767 137.489 71.4315 136.786C72.1056 136.074 72.9648 135.718 74.0091 135.718C75.0534 135.718 75.9126 136.074 76.5866 136.786C77.2607 137.498 77.5977 138.41 77.5977 139.521V142.34C77.5977 143.46 77.2607 144.377 76.5866 145.089C75.9126 145.791 75.0534 146.142 74.0091 146.142ZM74.0091 144.946C74.7116 144.946 75.2812 144.714 75.7179 144.248C76.1546 143.783 76.373 143.147 76.373 142.34V139.521C76.373 138.714 76.1546 138.077 75.7179 137.612C75.2812 137.147 74.7116 136.915 74.0091 136.915C73.316 136.915 72.7511 137.147 72.3144 137.612C71.8777 138.077 71.6594 138.714 71.6594 139.521V142.34C71.6594 143.147 71.8777 143.783 72.3144 144.248C72.7511 144.714 73.316 144.946 74.0091 144.946ZM81.0263 146V137.1H79.0753L80.0721 135.889H82.251V146H81.0263ZM88.0029 146.142C87.0915 146.142 86.3035 145.858 85.6389 145.288C84.9744 144.718 84.6326 144.044 84.6136 143.266H85.8668C85.9807 143.759 86.2323 144.163 86.6215 144.476C87.0108 144.79 87.4712 144.946 88.0029 144.946C88.6199 144.946 89.1374 144.737 89.5551 144.32C89.9728 143.902 90.1817 143.389 90.1817 142.782C90.1817 142.165 89.9823 141.647 89.5836 141.229C89.1848 140.812 88.6769 140.603 88.0598 140.603C87.2149 140.603 86.5788 140.945 86.1516 141.628L84.9839 141.286L86.0234 135.889H90.7513V137.085H87.006L86.4506 139.976C86.9443 139.625 87.5329 139.449 88.2165 139.449C89.1563 139.449 89.9253 139.782 90.5234 140.446C91.131 141.101 91.4348 141.932 91.4348 142.938C91.4348 143.831 91.1073 144.59 90.4522 145.217C89.7972 145.834 88.9807 146.142 88.0029 146.142Z" fill="#6F6C99"/>
<path d="M47.312 96.1424C46.2582 96.1424 45.399 95.7911 44.7344 95.0886C44.0699 94.3766 43.7376 93.4604 43.7376 92.3402V89.5205C43.7376 88.4003 44.0699 87.4889 44.7344 86.7864C45.4085 86.0743 46.2677 85.7183 47.312 85.7183C48.3563 85.7183 49.2155 86.0743 49.8895 86.7864C50.5636 87.4984 50.9006 88.4098 50.9006 89.5205V92.3402C50.9006 93.4604 50.5636 94.3766 49.8895 95.0886C49.2155 95.7911 48.3563 96.1424 47.312 96.1424ZM47.312 94.9462C48.0145 94.9462 48.5841 94.7136 49.0208 94.2484C49.4576 93.7832 49.6759 93.1471 49.6759 92.3402V89.5205C49.6759 88.7136 49.4576 88.0775 49.0208 87.6123C48.5841 87.1471 48.0145 86.9145 47.312 86.9145C46.6189 86.9145 46.0541 87.1471 45.6173 87.6123C45.1806 88.0775 44.9623 88.7136 44.9623 89.5205V92.3402C44.9623 93.1471 45.1806 93.7832 45.6173 94.2484C46.0541 94.7136 46.6189 94.9462 47.312 94.9462ZM54.5766 95.8006C54.3772 96.0095 54.1304 96.1139 53.8361 96.1139C53.5418 96.1139 53.2902 96.0095 53.0813 95.8006C52.882 95.5918 52.7823 95.3402 52.7823 95.0459C52.7823 94.7611 52.8867 94.5142 53.0956 94.3054C53.3044 94.087 53.5513 93.9778 53.8361 93.9778C54.1209 93.9778 54.3677 94.087 54.5766 94.3054C54.7855 94.5142 54.8899 94.7611 54.8899 95.0459C54.8899 95.3402 54.7855 95.5918 54.5766 95.8006ZM60.3446 96.1424C59.2908 96.1424 58.4317 95.7911 57.7671 95.0886C57.1025 94.3766 56.7703 93.4604 56.7703 92.3402V89.5205C56.7703 88.4003 57.1025 87.4889 57.7671 86.7864C58.4411 86.0743 59.3003 85.7183 60.3446 85.7183C61.3889 85.7183 62.2481 86.0743 62.9222 86.7864C63.5962 87.4984 63.9333 88.4098 63.9333 89.5205V92.3402C63.9333 93.4604 63.5962 94.3766 62.9222 95.0886C62.2481 95.7911 61.3889 96.1424 60.3446 96.1424ZM60.3446 94.9462C61.0472 94.9462 61.6168 94.7136 62.0535 94.2484C62.4902 93.7832 62.7086 93.1471 62.7086 92.3402V89.5205C62.7086 88.7136 62.4902 88.0775 62.0535 87.6123C61.6168 87.1471 61.0472 86.9145 60.3446 86.9145C59.6516 86.9145 59.0867 87.1471 58.65 87.6123C58.2133 88.0775 57.9949 88.7136 57.9949 89.5205V92.3402C57.9949 93.1471 58.2133 93.7832 58.65 94.2484C59.0867 94.7136 59.6516 94.9462 60.3446 94.9462ZM69.7258 96.1424C68.672 96.1424 67.8128 95.7911 67.1482 95.0886C66.4837 94.3766 66.1514 93.4604 66.1514 92.3402V89.5205C66.1514 88.4003 66.4837 87.4889 67.1482 86.7864C67.8223 86.0743 68.6815 85.7183 69.7258 85.7183C70.7701 85.7183 71.6293 86.0743 72.3033 86.7864C72.9774 87.4984 73.3144 88.4098 73.3144 89.5205V92.3402C73.3144 93.4604 72.9774 94.3766 72.3033 95.0886C71.6293 95.7911 70.7701 96.1424 69.7258 96.1424ZM69.7258 94.9462C70.4283 94.9462 70.9979 94.7136 71.4346 94.2484C71.8713 93.7832 72.0897 93.1471 72.0897 92.3402V89.5205C72.0897 88.7136 71.8713 88.0775 71.4346 87.6123C70.9979 87.1471 70.4283 86.9145 69.7258 86.9145C69.0327 86.9145 68.4679 87.1471 68.0311 87.6123C67.5944 88.0775 67.3761 88.7136 67.3761 89.5205V92.3402C67.3761 93.1471 67.5944 93.7832 68.0311 94.2484C68.4679 94.7136 69.0327 94.9462 69.7258 94.9462ZM81.9265 94.818V96H75.3759V95.5158C75.3759 95.1646 75.4281 94.8323 75.5325 94.519C75.6464 94.1962 75.7699 93.9256 75.9028 93.7073C76.0357 93.4889 76.2445 93.2468 76.5294 92.981C76.8142 92.7057 77.0373 92.5063 77.1987 92.3829C77.3601 92.25 77.6306 92.0506 78.0104 91.7848C78.3901 91.5095 78.6417 91.3291 78.7651 91.2437C79.4392 90.75 79.9044 90.337 80.1607 90.0047C80.4265 89.6629 80.5594 89.2167 80.5594 88.6661C80.5594 88.1345 80.3886 87.712 80.0468 87.3987C79.705 87.0759 79.2588 86.9145 78.7082 86.9145C78.129 86.9145 77.6354 87.0902 77.2271 87.4414C76.8189 87.7927 76.6148 88.2816 76.6148 88.9082H75.3616C75.3616 87.9588 75.6749 87.1898 76.3015 86.6012C76.9376 86.0126 77.7351 85.7183 78.6939 85.7183C79.5863 85.7183 80.3268 85.9746 80.9155 86.4873C81.5136 87 81.8126 87.731 81.8126 88.6803C81.8126 89.4019 81.637 90.019 81.2857 90.5316C80.9344 91.0348 80.3316 91.5949 79.4772 92.212C79.3158 92.3259 79.0879 92.4873 78.7936 92.6962C78.4993 92.8956 78.2715 93.0569 78.1101 93.1804C77.9487 93.3038 77.7683 93.4557 77.5689 93.6361C77.379 93.807 77.2271 93.9921 77.1132 94.1914C77.0088 94.3813 76.9328 94.5902 76.8854 94.818H81.9265ZM87.5563 96.1424C86.5025 96.1424 85.6433 95.7911 84.9787 95.0886C84.3142 94.3766 83.9819 93.4604 83.9819 92.3402V89.5205C83.9819 88.4003 84.3142 87.4889 84.9787 86.7864C85.6528 86.0743 86.512 85.7183 87.5563 85.7183C88.6006 85.7183 89.4598 86.0743 90.1338 86.7864C90.8079 87.4984 91.1449 88.4098 91.1449 89.5205V92.3402C91.1449 93.4604 90.8079 94.3766 90.1338 95.0886C89.4598 95.7911 88.6006 96.1424 87.5563 96.1424ZM87.5563 94.9462C88.2588 94.9462 88.8284 94.7136 89.2651 94.2484C89.7019 93.7832 89.9202 93.1471 89.9202 92.3402V89.5205C89.9202 88.7136 89.7019 88.0775 89.2651 87.6123C88.8284 87.1471 88.2588 86.9145 87.5563 86.9145C86.8632 86.9145 86.2984 87.1471 85.8616 87.6123C85.4249 88.0775 85.2066 88.7136 85.2066 89.5205V92.3402C85.2066 93.1471 85.4249 93.7832 85.8616 94.2484C86.2984 94.7136 86.8632 94.9462 87.5563 94.9462Z" fill="#6F6C99"/>
<path d="M17 247.005L4.93 247.005L4.93 239.984L6.426 239.984L6.426 245.424L10.081 245.424L10.081 241.123L11.577 241.123L11.577 245.424L17 245.424L17 247.005ZM17.17 235.241C17.17 236.17 16.8583 236.924 16.235 237.502C15.6003 238.08 14.7617 238.369 13.719 238.369L8.5 238.369L8.5 236.907L13.498 236.907C14.212 236.907 14.7787 236.737 15.198 236.397C15.6173 236.046 15.827 235.575 15.827 234.986C15.827 234.306 15.5493 233.745 14.994 233.303C14.4273 232.85 13.668 232.623 12.716 232.623L8.5 232.623L8.5 231.161L17 231.161L17 232.623L15.691 232.623C16.677 233.178 17.17 234.051 17.17 235.241ZM17 227.897L8.5 227.897L8.5 226.435L9.809 226.435C8.823 225.857 8.33 224.956 8.33 223.732C8.33 222.768 8.64166 221.992 9.265 221.403C9.88833 220.813 10.7213 220.519 11.764 220.519L17 220.519L17 221.964L11.985 221.964C11.271 221.964 10.71 222.145 10.302 222.508C9.88267 222.87 9.673 223.358 9.673 223.97C9.673 224.672 9.95067 225.262 10.506 225.738C11.0613 226.202 11.8207 226.435 12.784 226.435L17 226.435L17 227.897ZM17.17 213.875C17.17 215.054 16.7393 216.046 15.878 216.85C15.0167 217.644 13.974 218.04 12.75 218.04C11.526 218.04 10.4833 217.644 9.622 216.85C8.76066 216.046 8.33 215.054 8.33 213.875C8.33 213.252 8.47166 212.674 8.755 212.141C9.027 211.597 9.37833 211.178 9.809 210.883L4.25 210.883L4.25 209.421L17 209.421L17 210.883L15.691 210.883C16.1217 211.178 16.4787 211.597 16.762 212.141C17.034 212.674 17.17 213.252 17.17 213.875ZM15.827 213.654C15.827 212.816 15.5323 212.124 14.943 211.58C14.3537 211.036 13.6227 210.764 12.75 210.764C11.8773 210.764 11.1463 211.036 10.557 211.58C9.96766 212.124 9.673 212.816 9.673 213.654C9.673 214.504 9.96766 215.201 10.557 215.745C11.1463 216.289 11.8773 216.561 12.75 216.561C13.6227 216.561 14.3537 216.289 14.943 215.745C15.5323 215.201 15.827 214.504 15.827 213.654ZM17 201.331L4.93 201.331L4.93 197.217C4.93 196.106 5.236 195.228 5.848 194.582C6.44866 193.936 7.25333 193.613 8.262 193.613C9.146 193.613 9.87133 193.879 10.438 194.412C11.0047 194.933 11.356 195.664 11.492 196.605L17 191.947L17 193.936L11.509 198.577L11.509 199.75L17 199.75L17 201.331ZM10.098 199.75L10.098 197.404C10.098 196.701 9.945 196.157 9.639 195.772C9.32166 195.386 8.86266 195.194 8.262 195.194C7.66133 195.194 7.20233 195.386 6.885 195.772C6.55633 196.157 6.392 196.701 6.392 197.404L6.392 199.75L10.098 199.75ZM17.17 186.983C17.17 188.161 16.7393 189.153 15.878 189.958C15.0167 190.751 13.974 191.148 12.75 191.148C11.526 191.148 10.4833 190.751 9.622 189.958C8.76066 189.153 8.33 188.161 8.33 186.983C8.33 186.359 8.47166 185.781 8.755 185.249C9.027 184.705 9.37833 184.285 9.809 183.991L8.5 183.991L8.5 182.529L17 182.529L17 183.991L15.691 183.991C16.1217 184.285 16.4787 184.705 16.762 185.249C17.034 185.781 17.17 186.359 17.17 186.983ZM15.827 186.762C15.827 185.923 15.5323 185.232 14.943 184.688C14.3537 184.144 13.6227 183.872 12.75 183.872C11.8773 183.872 11.1463 184.144 10.557 184.688C9.96766 185.232 9.673 185.923 9.673 186.762C9.673 187.612 9.96766 188.309 10.557 188.853C11.1463 189.397 11.8773 189.669 12.75 189.669C13.6227 189.669 14.3537 189.397 14.943 188.853C15.5323 188.309 15.827 187.612 15.827 186.762ZM5.933 177.789C6.12566 177.982 6.222 178.225 6.222 178.52C6.222 178.815 6.12566 179.064 5.933 179.268C5.729 179.472 5.47966 179.574 5.185 179.574C4.90166 179.574 4.658 179.472 4.454 179.268C4.25 179.064 4.148 178.815 4.148 178.52C4.148 178.225 4.25 177.982 4.454 177.789C4.658 177.596 4.90166 177.5 5.185 177.5C5.47966 177.5 5.729 177.596 5.933 177.789ZM17 179.268L8.5 179.268L8.5 177.806L17 177.806L17 179.268ZM17.17 171.789C17.17 172.741 16.9377 173.54 16.473 174.186C16.0083 174.821 15.3623 175.172 14.535 175.24L14.535 173.744C15.011 173.653 15.3623 173.427 15.589 173.064C15.8157 172.69 15.929 172.259 15.929 171.772C15.929 171.285 15.8327 170.894 15.64 170.599C15.4473 170.293 15.1697 170.14 14.807 170.14C14.467 170.14 14.1893 170.253 13.974 170.48C13.7587 170.695 13.583 171.052 13.447 171.551L13.124 172.775C12.7387 174.237 11.9057 174.968 10.625 174.968C9.93366 174.968 9.37833 174.696 8.959 174.152C8.53966 173.597 8.33 172.888 8.33 172.027C8.33 171.154 8.56233 170.44 9.027 169.885C9.48033 169.318 10.0583 169.001 10.761 168.933L10.761 170.395C10.387 170.508 10.0923 170.712 9.877 171.007C9.66166 171.29 9.554 171.63 9.554 172.027C9.554 172.446 9.65033 172.798 9.843 173.081C10.0357 173.353 10.2907 173.489 10.608 173.489C10.914 173.489 11.1633 173.387 11.356 173.183C11.5487 172.979 11.7073 172.65 11.832 172.197L12.189 170.837C12.5517 169.386 13.3903 168.661 14.705 168.661C15.521 168.661 16.1387 168.95 16.558 169.528C16.966 170.106 17.17 170.86 17.17 171.789ZM17.17 162.461C17.17 163.696 16.7507 164.722 15.912 165.538C15.0733 166.342 14.0193 166.745 12.75 166.745C11.4693 166.745 10.4153 166.354 9.588 165.572C8.74933 164.778 8.33 163.73 8.33 162.427C8.33 161.112 8.79466 160.081 9.724 159.333C10.6533 158.585 11.7923 158.256 13.141 158.347L13.141 165.266C13.9117 165.243 14.5577 164.96 15.079 164.416C15.589 163.872 15.844 163.214 15.844 162.444C15.844 161.288 15.368 160.466 14.416 159.979L14.416 158.483C15.2093 158.698 15.8667 159.157 16.388 159.86C16.9093 160.562 17.17 161.429 17.17 162.461ZM10.234 160.795C9.826 161.259 9.622 161.82 9.622 162.478C9.622 163.135 9.82033 163.724 10.217 164.246C10.6137 164.756 11.203 165.073 11.985 165.198L11.985 159.894C11.2143 160.03 10.6307 160.33 10.234 160.795ZM17.17 152.226C17.17 153.405 16.7393 154.397 15.878 155.201C15.0167 155.995 13.974 156.391 12.75 156.391C11.526 156.391 10.4833 155.995 9.622 155.201C8.76066 154.397 8.32999 153.405 8.32999 152.226C8.32999 151.603 8.47166 151.025 8.755 150.492C9.027 149.948 9.37833 149.529 9.809 149.234L4.24999 149.234L4.24999 147.772L17 147.772L17 149.234L15.691 149.234C16.1217 149.529 16.4787 149.948 16.762 150.492C17.034 151.025 17.17 151.603 17.17 152.226ZM15.827 152.005C15.827 151.167 15.5323 150.475 14.943 149.931C14.3537 149.387 13.6227 149.115 12.75 149.115C11.8773 149.115 11.1463 149.387 10.557 149.931C9.96766 150.475 9.673 151.167 9.673 152.005C9.673 152.855 9.96766 153.552 10.557 154.096C11.1463 154.64 11.8773 154.912 12.75 154.912C13.6227 154.912 14.3537 154.64 14.943 154.096C15.5323 153.552 15.827 152.855 15.827 152.005Z" fill="black"/>
<path d="M127 279.744L164.822 288.944C168.761 289.902 172.91 289.487 176.581 287.767L221.908 266.531C224.272 265.424 226.85 264.85 229.46 264.85H265.17C269.434 264.85 273.556 263.319 276.787 260.537L312.146 230.084C316.591 226.256 322.637 224.864 328.309 226.362L353.508 233.018C358.159 234.246 363.108 233.541 367.23 231.061L400.071 211.305C405.18 208.232 411.489 207.92 416.876 210.476L444.335 223.501C451.721 227.005 460.545 225.027 465.729 218.705L488.788 190.583C493.805 184.464 502.259 182.392 509.537 185.496L570.202 211.371C577.266 214.385 585.467 212.527 590.544 206.763L637.974 152.912C640.605 149.926 644.16 147.907 648.072 147.178L771.861 124.115C775.415 123.452 779.087 123.888 782.388 125.364L826.386 145.038C831.03 147.115 836.341 147.105 840.978 145.011L886.19 124.593C888.374 123.606 890.337 122.189 891.96 120.425L908 103" stroke="#333CFF" stroke-width="4.74686" stroke-linecap="round" stroke-linejoin="round"/>
<path d="M18.81 30H23.133L14.025 6.603H9.438L0.33 30H4.521L6.699 24.126H16.599L18.81 30ZM11.649 10.893L15.213 20.463H8.085L11.649 10.893ZM29.6673 20.727C29.6673 18.615 30.8223 16.932 33.0003 16.932C35.4093 16.932 36.3003 18.516 36.3003 20.496V30H40.1283V19.836C40.1283 16.305 38.2473 13.467 34.3203 13.467C32.5383 13.467 30.6243 14.226 29.5683 16.074V13.929H25.8393V30H29.6673V20.727ZM43.7985 25.644C43.7985 28.185 45.8775 30.495 49.2435 30.495C51.8505 30.495 53.4345 29.175 54.1935 27.954C54.1935 29.241 54.3255 29.901 54.3585 30H57.9225C57.8895 29.835 57.7245 28.878 57.7245 27.426V19.44C57.7245 16.239 55.8435 13.434 50.8935 13.434C46.9335 13.434 44.4255 15.909 44.1285 18.681L47.6265 19.473C47.7915 17.856 48.9135 16.569 50.9265 16.569C53.0385 16.569 53.9625 17.658 53.9625 19.011C53.9625 19.572 53.6985 20.034 52.7745 20.166L48.6495 20.793C45.9105 21.189 43.7985 22.773 43.7985 25.644ZM49.9695 27.492C48.4515 27.492 47.6265 26.502 47.6265 25.413C47.6265 24.093 48.5835 23.433 49.7715 23.235L53.9625 22.608V23.334C53.9625 26.469 52.1145 27.492 49.9695 27.492ZM66.18 30V6.108H62.352V30H66.18ZM76.0016 36.501L86.2316 13.929H82.1726L77.8496 24.093L73.2296 13.929H68.9066L75.7706 28.086L71.9096 36.501H76.0016ZM100.949 30V26.634H92.5335L100.784 17.163V13.929H87.9795V17.295H95.9655L87.8145 26.667V30H100.949ZM107.274 20.199C107.406 18.483 108.792 16.635 111.201 16.635C113.841 16.635 115.095 18.318 115.161 20.199H107.274ZM115.59 24.39C115.062 25.974 113.874 27.195 111.564 27.195C109.188 27.195 107.274 25.446 107.175 23.004H118.923C118.956 22.938 119.022 22.41 119.022 21.783C119.022 16.701 116.118 13.434 111.168 13.434C107.109 13.434 103.347 16.8 103.347 21.882C103.347 27.327 107.208 30.495 111.564 30.495C115.425 30.495 117.966 28.218 118.824 25.413L115.59 24.39ZM125.254 21.915C125.254 18.846 127.102 16.899 129.61 16.899C132.118 16.899 133.834 18.813 133.834 21.882C133.834 24.951 132.085 27.03 129.577 27.03C126.97 27.03 125.254 24.984 125.254 21.915ZM137.53 6.108H133.801V15.81C133.306 14.787 131.887 13.5 129.082 13.5C124.561 13.5 121.426 17.295 121.426 21.915C121.426 26.766 124.528 30.396 129.148 30.396C131.425 30.396 133.108 29.274 133.867 27.921C133.867 28.581 133.966 29.637 134.032 30H137.695C137.662 29.736 137.53 28.515 137.53 27.063V6.108ZM159.396 24.819L152.862 6.603H148.572L157.284 30H161.31L170.154 6.603H165.963L159.396 24.819ZM176.749 30V13.929H172.954V30H176.749ZM172.36 8.286C172.36 9.672 173.482 10.761 174.835 10.761C176.221 10.761 177.343 9.672 177.343 8.286C177.343 6.9 176.221 5.778 174.835 5.778C173.482 5.778 172.36 6.9 172.36 8.286ZM184.36 20.199C184.492 18.483 185.878 16.635 188.287 16.635C190.927 16.635 192.181 18.318 192.247 20.199H184.36ZM192.676 24.39C192.148 25.974 190.96 27.195 188.65 27.195C186.274 27.195 184.36 25.446 184.261 23.004H196.009C196.042 22.938 196.108 22.41 196.108 21.783C196.108 16.701 193.204 13.434 188.254 13.434C184.195 13.434 180.433 16.8 180.433 21.882C180.433 27.327 184.294 30.495 188.65 30.495C192.511 30.495 195.052 28.218 195.91 25.413L192.676 24.39ZM208.648 13.929L204.853 25.05L201.586 13.929H197.494L202.708 30H206.635L210.529 18.45L214.522 30H218.35L223.498 13.929H219.604L216.403 25.05L212.608 13.929H208.648ZM233.712 19.44C233.712 26.832 236.649 31.848 240.345 35.544L242.589 33.531C239.157 29.769 236.946 25.347 236.946 19.44C236.946 13.566 239.157 9.144 242.589 5.382L240.345 3.336C236.649 7.032 233.712 12.048 233.712 19.44ZM249.367 30V20.562H258.871V16.899H249.367V10.332H259.96V6.603H245.407V30H249.367ZM272.521 28.218C272.521 28.878 272.587 29.637 272.653 30H276.316C276.25 29.406 276.151 28.383 276.151 27.063V13.929H272.323V23.433C272.323 25.545 271.168 27.03 268.957 27.03C266.647 27.03 265.723 25.347 265.723 23.367V13.929H261.895V24.06C261.895 27.624 264.139 30.462 267.967 30.462C269.848 30.462 271.729 29.67 272.521 28.218ZM284.934 20.727C284.934 18.615 286.089 16.932 288.267 16.932C290.676 16.932 291.567 18.516 291.567 20.496V30H295.395V19.836C295.395 16.305 293.514 13.467 289.587 13.467C287.805 13.467 285.891 14.226 284.835 16.074V13.929H281.106V30H284.934V20.727ZM302.629 21.915C302.629 18.846 304.477 16.899 306.985 16.899C309.493 16.899 311.209 18.813 311.209 21.882C311.209 24.951 309.46 27.03 306.952 27.03C304.345 27.03 302.629 24.984 302.629 21.915ZM314.905 6.108H311.176V15.81C310.681 14.787 309.262 13.5 306.457 13.5C301.936 13.5 298.801 17.295 298.801 21.915C298.801 26.766 301.903 30.396 306.523 30.396C308.8 30.396 310.483 29.274 311.242 27.921C311.242 28.581 311.341 29.637 311.407 30H315.07C315.037 29.736 314.905 28.515 314.905 27.063V6.108ZM337.497 13.83C337.332 13.797 336.936 13.731 336.474 13.731C334.362 13.731 332.58 14.754 331.821 16.503V13.929H328.092V30H331.92V22.344C331.92 19.341 333.273 17.625 336.243 17.625C336.639 17.625 337.068 17.658 337.497 17.724V13.83ZM339.735 25.644C339.735 28.185 341.814 30.495 345.18 30.495C347.787 30.495 349.371 29.175 350.13 27.954C350.13 29.241 350.262 29.901 350.295 30H353.859C353.826 29.835 353.661 28.878 353.661 27.426V19.44C353.661 16.239 351.78 13.434 346.83 13.434C342.87 13.434 340.362 15.909 340.065 18.681L343.563 19.473C343.728 17.856 344.85 16.569 346.863 16.569C348.975 16.569 349.899 17.658 349.899 19.011C349.899 19.572 349.635 20.034 348.711 20.166L344.586 20.793C341.847 21.189 339.735 22.773 339.735 25.644ZM345.906 27.492C344.388 27.492 343.563 26.502 343.563 25.413C343.563 24.093 344.52 23.433 345.708 23.235L349.899 22.608V23.334C349.899 26.469 348.051 27.492 345.906 27.492ZM362.083 30V13.929H358.288V30H362.083ZM357.694 8.286C357.694 9.672 358.816 10.761 360.169 10.761C361.555 10.761 362.677 9.672 362.677 8.286C362.677 6.9 361.555 5.778 360.169 5.778C358.816 5.778 357.694 6.9 357.694 8.286ZM365.603 25.644C365.801 27.459 367.583 30.495 372.236 30.495C376.328 30.495 378.308 27.789 378.308 25.347C378.308 22.971 376.724 21.123 373.688 20.463L371.246 19.968C370.256 19.77 369.629 19.143 369.629 18.285C369.629 17.295 370.586 16.437 371.939 16.437C374.084 16.437 374.777 17.922 374.909 18.846L378.143 17.922C377.879 16.338 376.427 13.434 371.939 13.434C368.606 13.434 366.032 15.81 366.032 18.615C366.032 20.826 367.517 22.674 370.355 23.301L372.731 23.829C374.018 24.093 374.612 24.753 374.612 25.611C374.612 26.601 373.787 27.459 372.203 27.459C370.157 27.459 369.068 26.172 368.936 24.72L365.603 25.644ZM384.68 20.199C384.812 18.483 386.198 16.635 388.607 16.635C391.247 16.635 392.501 18.318 392.567 20.199H384.68ZM392.996 24.39C392.468 25.974 391.28 27.195 388.97 27.195C386.594 27.195 384.68 25.446 384.581 23.004H396.329C396.362 22.938 396.428 22.41 396.428 21.783C396.428 16.701 393.524 13.434 388.574 13.434C384.515 13.434 380.753 16.8 380.753 21.882C380.753 27.327 384.614 30.495 388.97 30.495C392.831 30.495 395.372 28.218 396.23 25.413L392.996 24.39ZM402.66 21.915C402.66 18.846 404.508 16.899 407.016 16.899C409.524 16.899 411.24 18.813 411.24 21.882C411.24 24.951 409.491 27.03 406.983 27.03C404.376 27.03 402.66 24.984 402.66 21.915ZM414.936 6.108H411.207V15.81C410.712 14.787 409.293 13.5 406.488 13.5C401.967 13.5 398.832 17.295 398.832 21.915C398.832 26.766 401.934 30.396 406.554 30.396C408.831 30.396 410.514 29.274 411.273 27.921C411.273 28.581 411.372 29.637 411.438 30H415.101C415.068 29.736 414.936 28.515 414.936 27.063V6.108ZM430.796 20.199C430.928 18.483 432.314 16.635 434.723 16.635C437.363 16.635 438.617 18.318 438.683 20.199H430.796ZM439.112 24.39C438.584 25.974 437.396 27.195 435.086 27.195C432.71 27.195 430.796 25.446 430.697 23.004H442.445C442.478 22.938 442.544 22.41 442.544 21.783C442.544 16.701 439.64 13.434 434.69 13.434C430.631 13.434 426.869 16.8 426.869 21.882C426.869 27.327 430.73 30.495 435.086 30.495C438.947 30.495 441.488 28.218 442.346 25.413L439.112 24.39ZM460.4 13.929H456.374L452.216 25.413L447.959 13.929H443.735L450.269 30H454.097L460.4 13.929ZM465.408 20.199C465.54 18.483 466.926 16.635 469.335 16.635C471.975 16.635 473.229 18.318 473.295 20.199H465.408ZM473.724 24.39C473.196 25.974 472.008 27.195 469.698 27.195C467.322 27.195 465.408 25.446 465.309 23.004H477.057C477.09 22.938 477.156 22.41 477.156 21.783C477.156 16.701 474.252 13.434 469.302 13.434C465.243 13.434 461.481 16.8 461.481 21.882C461.481 27.327 465.342 30.495 469.698 30.495C473.559 30.495 476.1 28.218 476.958 25.413L473.724 24.39ZM490.219 13.83C490.054 13.797 489.658 13.731 489.196 13.731C487.084 13.731 485.302 14.754 484.543 16.503V13.929H480.814V30H484.642V22.344C484.642 19.341 485.995 17.625 488.965 17.625C489.361 17.625 489.79 17.658 490.219 17.724V13.83ZM498.879 36.501L509.109 13.929H505.05L500.727 24.093L496.107 13.929H491.784L498.648 28.086L494.787 36.501H498.879ZM523.893 30V20.463C523.893 18.417 525.18 16.899 527.226 16.899C529.404 16.899 530.328 18.351 530.328 20.199V30H534.09V20.463C534.09 18.483 535.41 16.899 537.423 16.899C539.568 16.899 540.525 18.318 540.525 20.199V30H544.221V19.572C544.221 15.315 541.449 13.467 538.545 13.467C536.466 13.467 534.585 14.193 533.331 16.305C532.473 14.424 530.625 13.467 528.513 13.467C526.698 13.467 524.685 14.325 523.761 15.975V13.929H520.098V30H523.893ZM555.971 27.063C553.628 27.063 551.483 25.281 551.483 21.948C551.483 18.615 553.628 16.899 555.971 16.899C558.347 16.899 560.459 18.615 560.459 21.948C560.459 25.314 558.347 27.063 555.971 27.063ZM555.971 13.434C551.186 13.434 547.655 17.031 547.655 21.948C547.655 26.898 551.186 30.495 555.971 30.495C560.789 30.495 564.32 26.898 564.32 21.948C564.32 17.031 560.789 13.434 555.971 13.434ZM571.847 20.727C571.847 18.615 573.002 16.932 575.18 16.932C577.589 16.932 578.48 18.516 578.48 20.496V30H582.308V19.836C582.308 16.305 580.427 13.467 576.5 13.467C574.718 13.467 572.804 14.226 571.748 16.074V13.929H568.019V30H571.847V20.727ZM591.819 9.012H588.354V11.421C588.354 12.84 587.595 13.929 585.879 13.929H585.054V17.328H588.024V25.413C588.024 28.416 589.872 30.198 592.842 30.198C594.228 30.198 594.954 29.934 595.185 29.835V26.667C595.02 26.7 594.393 26.799 593.865 26.799C592.446 26.799 591.819 26.205 591.819 24.786V17.328H595.152V13.929H591.819V9.012ZM602.462 20.562C602.528 18.516 603.683 16.932 605.795 16.932C608.204 16.932 609.095 18.516 609.095 20.496V30H612.923V19.836C612.923 16.305 611.009 13.467 607.049 13.467C605.366 13.467 603.551 14.061 602.462 15.48V6.108H598.634V30H602.462V20.562ZM623.985 19.44C623.985 12.048 621.081 7.032 617.352 3.336L615.108 5.382C618.573 9.144 620.751 13.566 620.751 19.44C620.751 25.347 618.573 29.769 615.108 33.531L617.352 35.544C621.081 31.848 623.985 26.832 623.985 19.44Z" fill="black"/>
<defs>
<radialGradient id="paint0_radial_2261_1039" cx="0" cy="0" r="1" gradientUnits="userSpaceOnUse" gradientTransform="translate(528.198 211.448) rotate(180) scale(512.056 254.291)">
<stop stop-color="#EDECF3" stop-opacity="0.61"/>
<stop offset="1" stop-color="#E6E5F5" stop-opacity="0.01"/>
<stop offset="1" stop-color="#E6E5F5" stop-opacity="0.68"/>
</radialGradient>
<radialGradient id="paint1_radial_2261_1039" cx="0" cy="0" r="1" gradientUnits="userSpaceOnUse" gradientTransform="translate(528.198 211.448) rotate(180) scale(512.056 254.291)">
<stop stop-color="#EDECF3" stop-opacity="0.61"/>
<stop offset="1" stop-color="#E6E5F5" stop-opacity="0.01"/>
<stop offset="1" stop-color="#E6E5F5" stop-opacity="0.68"/>
</radialGradient>
<radialGradient id="paint2_radial_2261_1039" cx="0" cy="0" r="1" gradientUnits="userSpaceOnUse" gradientTransform="translate(528.198 211.448) rotate(180) scale(512.056 254.291)">
<stop stop-color="#EDECF3" stop-opacity="0.61"/>
<stop offset="1" stop-color="#E6E5F5" stop-opacity="0.01"/>
<stop offset="1" stop-color="#E6E5F5" stop-opacity="0.68"/>
</radialGradient>
<radialGradient id="paint3_radial_2261_1039" cx="0" cy="0" r="1" gradientUnits="userSpaceOnUse" gradientTransform="translate(528.198 211.448) rotate(180) scale(512.056 254.291)">
<stop stop-color="#EDECF3" stop-opacity="0.61"/>
<stop offset="1" stop-color="#E6E5F5" stop-opacity="0.01"/>
<stop offset="1" stop-color="#E6E5F5" stop-opacity="0.68"/>
</radialGradient>
<radialGradient id="paint4_radial_2261_1039" cx="0" cy="0" r="1" gradientUnits="userSpaceOnUse" gradientTransform="translate(528.198 211.448) rotate(180) scale(512.056 254.291)">
<stop stop-color="#EDECF3" stop-opacity="0.61"/>
<stop offset="1" stop-color="#E6E5F5" stop-opacity="0.01"/>
<stop offset="1" stop-color="#E6E5F5" stop-opacity="0.68"/>
</radialGradient>
<radialGradient id="paint5_radial_2261_1039" cx="0" cy="0" r="1" gradientUnits="userSpaceOnUse" gradientTransform="translate(528.198 211.448) rotate(180) scale(512.056 254.291)">
<stop stop-color="#EDECF3" stop-opacity="0.61"/>
<stop offset="1" stop-color="#E6E5F5" stop-opacity="0.01"/>
<stop offset="1" stop-color="#E6E5F5" stop-opacity="0.68"/>
</radialGradient>
<radialGradient id="paint6_radial_2261_1039" cx="0" cy="0" r="1" gradientUnits="userSpaceOnUse" gradientTransform="translate(528.198 211.448) rotate(180) scale(512.056 254.291)">
<stop stop-color="#EDECF3" stop-opacity="0.61"/>
<stop offset="1" stop-color="#E6E5F5" stop-opacity="0.01"/>
<stop offset="1" stop-color="#E6E5F5" stop-opacity="0.68"/>
</radialGradient>
<radialGradient id="paint7_radial_2261_1039" cx="0" cy="0" r="1" gradientUnits="userSpaceOnUse" gradientTransform="translate(528.198 211.448) rotate(180) scale(512.056 254.291)">
<stop stop-color="#EDECF3" stop-opacity="0.61"/>
<stop offset="1" stop-color="#E6E5F5" stop-opacity="0.01"/>
<stop offset="1" stop-color="#E6E5F5" stop-opacity="0.68"/>
</radialGradient>
<radialGradient id="paint8_radial_2261_1039" cx="0" cy="0" r="1" gradientUnits="userSpaceOnUse" gradientTransform="translate(528.198 211.448) rotate(180) scale(512.056 254.291)">
<stop stop-color="#EDECF3" stop-opacity="0.61"/>
<stop offset="1" stop-color="#E6E5F5" stop-opacity="0.01"/>
<stop offset="1" stop-color="#E6E5F5" stop-opacity="0.68"/>
</radialGradient>
<radialGradient id="paint9_radial_2261_1039" cx="0" cy="0" r="1" gradientUnits="userSpaceOnUse" gradientTransform="translate(528.198 211.448) rotate(180) scale(512.056 254.291)">
<stop stop-color="#EDECF3" stop-opacity="0.61"/>
<stop offset="1" stop-color="#E6E5F5" stop-opacity="0.01"/>
<stop offset="1" stop-color="#E6E5F5" stop-opacity="0.68"/>
</radialGradient>
<radialGradient id="paint10_radial_2261_1039" cx="0" cy="0" r="1" gradientUnits="userSpaceOnUse" gradientTransform="translate(528.198 211.448) rotate(180) scale(512.056 254.291)">
<stop stop-color="#EDECF3" stop-opacity="0.61"/>
<stop offset="1" stop-color="#E6E5F5" stop-opacity="0.01"/>
<stop offset="1" stop-color="#E6E5F5" stop-opacity="0.68"/>
</radialGradient>
<radialGradient id="paint11_radial_2261_1039" cx="0" cy="0" r="1" gradientUnits="userSpaceOnUse" gradientTransform="translate(528.198 211.448) rotate(180) scale(512.056 254.291)">
<stop stop-color="#EDECF3" stop-opacity="0.61"/>
<stop offset="1" stop-color="#E6E5F5" stop-opacity="0.01"/>
<stop offset="1" stop-color="#E6E5F5" stop-opacity="0.68"/>
</radialGradient>
<radialGradient id="paint12_radial_2261_1039" cx="0" cy="0" r="1" gradientUnits="userSpaceOnUse" gradientTransform="translate(528.198 211.448) rotate(180) scale(512.056 254.291)">
<stop stop-color="#EDECF3" stop-opacity="0.61"/>
<stop offset="1" stop-color="#E6E5F5" stop-opacity="0.01"/>
<stop offset="1" stop-color="#E6E5F5" stop-opacity="0.68"/>
</radialGradient>
<radialGradient id="paint13_radial_2261_1039" cx="0" cy="0" r="1" gradientUnits="userSpaceOnUse" gradientTransform="translate(528.198 211.448) rotate(180) scale(512.056 254.291)">
<stop stop-color="#EDECF3" stop-opacity="0.61"/>
<stop offset="1" stop-color="#E6E5F5" stop-opacity="0.01"/>
<stop offset="1" stop-color="#E6E5F5" stop-opacity="0.68"/>
</radialGradient>
<radialGradient id="paint14_radial_2261_1039" cx="0" cy="0" r="1" gradientUnits="userSpaceOnUse" gradientTransform="translate(528.198 211.448) rotate(180) scale(512.056 254.291)">
<stop stop-color="#EDECF3" stop-opacity="0.61"/>
<stop offset="1" stop-color="#E6E5F5" stop-opacity="0.01"/>
<stop offset="1" stop-color="#E6E5F5" stop-opacity="0.68"/>
</radialGradient>
<radialGradient id="paint15_radial_2261_1039" cx="0" cy="0" r="1" gradientUnits="userSpaceOnUse" gradientTransform="translate(528.198 211.448) rotate(180) scale(512.056 254.291)">
<stop stop-color="#EDECF3" stop-opacity="0.61"/>
<stop offset="1" stop-color="#E6E5F5" stop-opacity="0.01"/>
<stop offset="1" stop-color="#E6E5F5" stop-opacity="0.68"/>
</radialGradient>
<radialGradient id="paint16_radial_2261_1039" cx="0" cy="0" r="1" gradientUnits="userSpaceOnUse" gradientTransform="translate(528.198 211.448) rotate(180) scale(512.056 254.291)">
<stop stop-color="#EDECF3" stop-opacity="0.61"/>
<stop offset="1" stop-color="#E6E5F5" stop-opacity="0.01"/>
<stop offset="1" stop-color="#E6E5F5" stop-opacity="0.68"/>
</radialGradient>
<radialGradient id="paint17_radial_2261_1039" cx="0" cy="0" r="1" gradientUnits="userSpaceOnUse" gradientTransform="translate(528.198 211.448) rotate(180) scale(512.056 254.291)">
<stop stop-color="#EDECF3" stop-opacity="0.61"/>
<stop offset="1" stop-color="#E6E5F5" stop-opacity="0.01"/>
<stop offset="1" stop-color="#E6E5F5" stop-opacity="0.68"/>
</radialGradient>
<radialGradient id="paint18_radial_2261_1039" cx="0" cy="0" r="1" gradientUnits="userSpaceOnUse" gradientTransform="translate(528.198 211.448) rotate(180) scale(512.056 254.291)">
<stop stop-color="#EDECF3" stop-opacity="0.61"/>
<stop offset="1" stop-color="#E6E5F5" stop-opacity="0.01"/>
<stop offset="1" stop-color="#E6E5F5" stop-opacity="0.68"/>
</radialGradient>
<radialGradient id="paint19_radial_2261_1039" cx="0" cy="0" r="1" gradientUnits="userSpaceOnUse" gradientTransform="translate(528.198 211.448) rotate(180) scale(512.056 254.291)">
<stop stop-color="#EDECF3" stop-opacity="0.61"/>
<stop offset="1" stop-color="#E6E5F5" stop-opacity="0.01"/>
<stop offset="1" stop-color="#E6E5F5" stop-opacity="0.68"/>
</radialGradient>
<radialGradient id="paint20_radial_2261_1039" cx="0" cy="0" r="1" gradientUnits="userSpaceOnUse" gradientTransform="translate(528.198 211.448) rotate(180) scale(512.056 254.291)">
<stop stop-color="#EDECF3" stop-opacity="0.61"/>
<stop offset="1" stop-color="#E6E5F5" stop-opacity="0.01"/>
<stop offset="1" stop-color="#E6E5F5" stop-opacity="0.68"/>
</radialGradient>
<radialGradient id="paint21_radial_2261_1039" cx="0" cy="0" r="1" gradientUnits="userSpaceOnUse" gradientTransform="translate(528.198 211.448) rotate(180) scale(512.056 254.291)">
<stop stop-color="#EDECF3" stop-opacity="0.61"/>
<stop offset="1" stop-color="#E6E5F5" stop-opacity="0.01"/>
<stop offset="1" stop-color="#E6E5F5" stop-opacity="0.68"/>
</radialGradient>
<radialGradient id="paint22_radial_2261_1039" cx="0" cy="0" r="1" gradientUnits="userSpaceOnUse" gradientTransform="translate(528.198 211.448) rotate(180) scale(512.056 254.291)">
<stop stop-color="#EDECF3" stop-opacity="0.61"/>
<stop offset="1" stop-color="#E6E5F5" stop-opacity="0.01"/>
<stop offset="1" stop-color="#E6E5F5" stop-opacity="0.68"/>
</radialGradient>
<radialGradient id="paint23_radial_2261_1039" cx="0" cy="0" r="1" gradientUnits="userSpaceOnUse" gradientTransform="translate(528.198 211.448) rotate(180) scale(512.056 254.291)">
<stop stop-color="#EDECF3" stop-opacity="0.61"/>
<stop offset="1" stop-color="#E6E5F5" stop-opacity="0.01"/>
<stop offset="1" stop-color="#E6E5F5" stop-opacity="0.68"/>
</radialGradient>
<radialGradient id="paint24_radial_2261_1039" cx="0" cy="0" r="1" gradientUnits="userSpaceOnUse" gradientTransform="translate(528.198 211.448) rotate(180) scale(512.056 254.291)">
<stop stop-color="#EDECF3" stop-opacity="0.61"/>
<stop offset="1" stop-color="#E6E5F5" stop-opacity="0.01"/>
<stop offset="1" stop-color="#E6E5F5" stop-opacity="0.68"/>
</radialGradient>
<radialGradient id="paint25_radial_2261_1039" cx="0" cy="0" r="1" gradientUnits="userSpaceOnUse" gradientTransform="translate(528.198 211.448) rotate(180) scale(512.056 254.291)">
<stop stop-color="#EDECF3" stop-opacity="0.61"/>
<stop offset="1" stop-color="#E6E5F5" stop-opacity="0.01"/>
<stop offset="1" stop-color="#E6E5F5" stop-opacity="0.68"/>
</radialGradient>
<radialGradient id="paint26_radial_2261_1039" cx="0" cy="0" r="1" gradientUnits="userSpaceOnUse" gradientTransform="translate(528.198 211.448) rotate(180) scale(512.056 254.291)">
<stop stop-color="#EDECF3" stop-opacity="0.61"/>
<stop offset="1" stop-color="#E6E5F5" stop-opacity="0.01"/>
<stop offset="1" stop-color="#E6E5F5" stop-opacity="0.68"/>
</radialGradient>
<radialGradient id="paint27_radial_2261_1039" cx="0" cy="0" r="1" gradientUnits="userSpaceOnUse" gradientTransform="translate(528.198 211.448) rotate(180) scale(512.056 254.291)">
<stop stop-color="#EDECF3" stop-opacity="0.61"/>
<stop offset="1" stop-color="#E6E5F5" stop-opacity="0.01"/>
<stop offset="1" stop-color="#E6E5F5" stop-opacity="0.68"/>
</radialGradient>
<radialGradient id="paint28_radial_2261_1039" cx="0" cy="0" r="1" gradientUnits="userSpaceOnUse" gradientTransform="translate(528.198 211.448) rotate(180) scale(512.056 254.291)">
<stop stop-color="#EDECF3" stop-opacity="0.61"/>
<stop offset="1" stop-color="#E6E5F5" stop-opacity="0.01"/>
<stop offset="1" stop-color="#E6E5F5" stop-opacity="0.68"/>
</radialGradient>
<radialGradient id="paint29_radial_2261_1039" cx="0" cy="0" r="1" gradientUnits="userSpaceOnUse" gradientTransform="translate(528.198 211.448) rotate(180) scale(512.056 254.291)">
<stop stop-color="#EDECF3" stop-opacity="0.61"/>
<stop offset="1" stop-color="#E6E5F5" stop-opacity="0.01"/>
<stop offset="1" stop-color="#E6E5F5" stop-opacity="0.68"/>
</radialGradient>
<radialGradient id="paint30_radial_2261_1039" cx="0" cy="0" r="1" gradientUnits="userSpaceOnUse" gradientTransform="translate(528.198 211.448) rotate(180) scale(512.056 254.291)">
<stop stop-color="#EDECF3" stop-opacity="0.61"/>
<stop offset="1" stop-color="#E6E5F5" stop-opacity="0.01"/>
<stop offset="1" stop-color="#E6E5F5" stop-opacity="0.68"/>
</radialGradient>
<radialGradient id="paint31_radial_2261_1039" cx="0" cy="0" r="1" gradientUnits="userSpaceOnUse" gradientTransform="translate(528.198 211.448) rotate(180) scale(512.056 254.291)">
<stop stop-color="#EDECF3" stop-opacity="0.61"/>
<stop offset="1" stop-color="#E6E5F5" stop-opacity="0.01"/>
<stop offset="1" stop-color="#E6E5F5" stop-opacity="0.68"/>
</radialGradient>
<radialGradient id="paint32_radial_2261_1039" cx="0" cy="0" r="1" gradientUnits="userSpaceOnUse" gradientTransform="translate(528.198 211.448) rotate(180) scale(512.056 254.291)">
<stop stop-color="#EDECF3" stop-opacity="0.61"/>
<stop offset="1" stop-color="#E6E5F5" stop-opacity="0.01"/>
<stop offset="1" stop-color="#E6E5F5" stop-opacity="0.68"/>
</radialGradient>
<radialGradient id="paint33_radial_2261_1039" cx="0" cy="0" r="1" gradientUnits="userSpaceOnUse" gradientTransform="translate(528.198 211.448) rotate(180) scale(512.056 254.291)">
<stop stop-color="#EDECF3" stop-opacity="0.61"/>
<stop offset="1" stop-color="#E6E5F5" stop-opacity="0.01"/>
<stop offset="1" stop-color="#E6E5F5" stop-opacity="0.68"/>
</radialGradient>
<radialGradient id="paint34_radial_2261_1039" cx="0" cy="0" r="1" gradientUnits="userSpaceOnUse" gradientTransform="translate(528.198 211.448) rotate(180) scale(512.056 254.291)">
<stop stop-color="#EDECF3" stop-opacity="0.61"/>
<stop offset="1" stop-color="#E6E5F5" stop-opacity="0.01"/>
<stop offset="1" stop-color="#E6E5F5" stop-opacity="0.68"/>
</radialGradient>
<radialGradient id="paint35_radial_2261_1039" cx="0" cy="0" r="1" gradientUnits="userSpaceOnUse" gradientTransform="translate(528.198 211.448) rotate(180) scale(512.056 254.291)">
<stop stop-color="#EDECF3" stop-opacity="0.61"/>
<stop offset="1" stop-color="#E6E5F5" stop-opacity="0.01"/>
<stop offset="1" stop-color="#E6E5F5" stop-opacity="0.68"/>
</radialGradient>
<radialGradient id="paint36_radial_2261_1039" cx="0" cy="0" r="1" gradientUnits="userSpaceOnUse" gradientTransform="translate(528.198 211.448) rotate(180) scale(512.056 254.291)">
<stop stop-color="#EDECF3" stop-opacity="0.61"/>
<stop offset="1" stop-color="#E6E5F5" stop-opacity="0.01"/>
<stop offset="1" stop-color="#E6E5F5" stop-opacity="0.68"/>
</radialGradient>
<radialGradient id="paint37_radial_2261_1039" cx="0" cy="0" r="1" gradientUnits="userSpaceOnUse" gradientTransform="translate(528.198 211.448) rotate(180) scale(512.056 254.291)">
<stop stop-color="#EDECF3" stop-opacity="0.61"/>
<stop offset="1" stop-color="#E6E5F5" stop-opacity="0.01"/>
<stop offset="1" stop-color="#E6E5F5" stop-opacity="0.68"/>
</radialGradient>
<radialGradient id="paint38_radial_2261_1039" cx="0" cy="0" r="1" gradientUnits="userSpaceOnUse" gradientTransform="translate(528.198 211.448) rotate(180) scale(512.056 254.291)">
<stop stop-color="#EDECF3" stop-opacity="0.61"/>
<stop offset="1" stop-color="#E6E5F5" stop-opacity="0.01"/>
<stop offset="1" stop-color="#E6E5F5" stop-opacity="0.68"/>
</radialGradient>
<radialGradient id="paint39_radial_2261_1039" cx="0" cy="0" r="1" gradientUnits="userSpaceOnUse" gradientTransform="translate(528.198 211.448) rotate(180) scale(512.056 254.291)">
<stop stop-color="#EDECF3" stop-opacity="0.61"/>
<stop offset="1" stop-color="#E6E5F5" stop-opacity="0.01"/>
<stop offset="1" stop-color="#E6E5F5" stop-opacity="0.68"/>
</radialGradient>
</defs>
</svg>
